<mxfile host="app.diagrams.net" agent="Mozilla/5.0 (Windows NT 10.0; Win64; x64) AppleWebKit/537.36 (KHTML, like Gecko) Chrome/124.0.0.0 Safari/537.36" version="24.7.4">
  <diagram name="Page-1" id="e56a1550-8fbb-45ad-956c-1786394a9013">
    <mxGraphModel grid="1" page="1" gridSize="10" guides="1" tooltips="1" connect="1" arrows="1" fold="1" pageScale="1" pageWidth="1100" pageHeight="850" background="none" math="0" shadow="0">
      <root>
        <mxCell id="0" />
        <mxCell id="1" parent="0" />
        <mxCell id="2e49270ec7c68f3f-19" value="MLP Data" style="swimlane;html=1;fontStyle=0;childLayout=stackLayout;horizontal=1;startSize=26;fillColor=#E5CCFF;horizontalStack=0;resizeParent=1;resizeLast=0;collapsible=1;marginBottom=0;swimlaneFillColor=#ffffff;align=center;rounded=0;shadow=0;comic=0;labelBackgroundColor=none;strokeWidth=1;fontFamily=Verdana;fontSize=14" vertex="1" parent="1">
          <mxGeometry x="290" y="360" width="190" height="260" as="geometry">
            <mxRectangle x="290" y="360" width="110" height="30" as="alternateBounds" />
          </mxGeometry>
        </mxCell>
        <mxCell id="2e49270ec7c68f3f-24" value="ID (auto increment)" style="shape=partialRectangle;top=0;left=0;right=0;bottom=0;html=1;align=left;verticalAlign=top;fillColor=#E6FFCC;spacingLeft=34;spacingRight=4;whiteSpace=wrap;overflow=hidden;rotatable=0;points=[[0,0.5],[1,0.5]];portConstraint=eastwest;dropTarget=0;" vertex="1" parent="2e49270ec7c68f3f-19">
          <mxGeometry y="26" width="190" height="26" as="geometry" />
        </mxCell>
        <mxCell id="2e49270ec7c68f3f-25" value="" style="shape=partialRectangle;top=0;left=0;bottom=0;html=1;fillColor=none;align=left;verticalAlign=top;spacingLeft=4;spacingRight=4;whiteSpace=wrap;overflow=hidden;rotatable=0;points=[];portConstraint=eastwest;part=1;" vertex="1" connectable="0" parent="2e49270ec7c68f3f-24">
          <mxGeometry width="30" height="26" as="geometry" />
        </mxCell>
        <mxCell id="2e49270ec7c68f3f-22" value="Pony_Name (var char, [25])" style="shape=partialRectangle;top=0;left=0;right=0;bottom=0;html=1;align=left;verticalAlign=top;fillColor=#E6FFCC;spacingLeft=34;spacingRight=4;whiteSpace=wrap;overflow=hidden;rotatable=0;points=[[0,0.5],[1,0.5]];portConstraint=eastwest;dropTarget=0;" vertex="1" parent="2e49270ec7c68f3f-19">
          <mxGeometry y="52" width="190" height="26" as="geometry" />
        </mxCell>
        <mxCell id="2e49270ec7c68f3f-23" value="" style="shape=partialRectangle;top=0;left=0;bottom=0;html=1;fillColor=none;align=left;verticalAlign=top;spacingLeft=4;spacingRight=4;whiteSpace=wrap;overflow=hidden;rotatable=0;points=[];portConstraint=eastwest;part=1;" vertex="1" connectable="0" parent="2e49270ec7c68f3f-22">
          <mxGeometry width="30" height="26" as="geometry" />
        </mxCell>
        <mxCell id="2e49270ec7c68f3f-26" value="Non_pony (Boolean)" style="shape=partialRectangle;top=0;left=0;right=0;bottom=0;html=1;align=left;verticalAlign=top;fillColor=#E6FFCC;spacingLeft=34;spacingRight=4;whiteSpace=wrap;overflow=hidden;rotatable=0;points=[[0,0.5],[1,0.5]];portConstraint=eastwest;dropTarget=0;" vertex="1" parent="2e49270ec7c68f3f-19">
          <mxGeometry y="78" width="190" height="26" as="geometry" />
        </mxCell>
        <mxCell id="2e49270ec7c68f3f-27" value="" style="shape=partialRectangle;top=0;left=0;bottom=0;html=1;fillColor=none;align=left;verticalAlign=top;spacingLeft=4;spacingRight=4;whiteSpace=wrap;overflow=hidden;rotatable=0;points=[];portConstraint=eastwest;part=1;" vertex="1" connectable="0" parent="2e49270ec7c68f3f-26">
          <mxGeometry width="30" height="26" as="geometry" />
        </mxCell>
        <mxCell id="VhQvMDxb6IF8oOMxA0_s-3" value="Main character (Boolean)" style="shape=partialRectangle;top=0;left=0;right=0;bottom=0;html=1;align=left;verticalAlign=top;fillColor=#E6FFCC;spacingLeft=34;spacingRight=4;whiteSpace=wrap;overflow=hidden;rotatable=0;points=[[0,0.5],[1,0.5]];portConstraint=eastwest;dropTarget=0;" vertex="1" parent="2e49270ec7c68f3f-19">
          <mxGeometry y="104" width="190" height="26" as="geometry" />
        </mxCell>
        <mxCell id="VhQvMDxb6IF8oOMxA0_s-4" value="" style="shape=partialRectangle;top=0;left=0;bottom=0;html=1;fillColor=none;align=left;verticalAlign=top;spacingLeft=4;spacingRight=4;whiteSpace=wrap;overflow=hidden;rotatable=0;points=[];portConstraint=eastwest;part=1;" connectable="0" vertex="1" parent="VhQvMDxb6IF8oOMxA0_s-3">
          <mxGeometry width="30" height="26" as="geometry" />
        </mxCell>
        <mxCell id="VhQvMDxb6IF8oOMxA0_s-1" value="Mane colour (int)" style="shape=partialRectangle;top=0;left=0;right=0;bottom=0;html=1;align=left;verticalAlign=top;fillColor=#CCE5FF;spacingLeft=34;spacingRight=4;whiteSpace=wrap;overflow=hidden;rotatable=0;points=[[0,0.5],[1,0.5]];portConstraint=eastwest;dropTarget=0;" vertex="1" parent="2e49270ec7c68f3f-19">
          <mxGeometry y="130" width="190" height="26" as="geometry" />
        </mxCell>
        <mxCell id="VhQvMDxb6IF8oOMxA0_s-2" value="" style="shape=partialRectangle;top=0;left=0;bottom=0;html=1;fillColor=none;align=left;verticalAlign=top;spacingLeft=4;spacingRight=4;whiteSpace=wrap;overflow=hidden;rotatable=0;points=[];portConstraint=eastwest;part=1;" connectable="0" vertex="1" parent="VhQvMDxb6IF8oOMxA0_s-1">
          <mxGeometry width="30" height="26" as="geometry" />
        </mxCell>
        <mxCell id="VhQvMDxb6IF8oOMxA0_s-7" value="Body colour (int)" style="shape=partialRectangle;top=0;left=0;right=0;bottom=0;html=1;align=left;verticalAlign=top;fillColor=#CCE5FF;spacingLeft=34;spacingRight=4;whiteSpace=wrap;overflow=hidden;rotatable=0;points=[[0,0.5],[1,0.5]];portConstraint=eastwest;dropTarget=0;" vertex="1" parent="2e49270ec7c68f3f-19">
          <mxGeometry y="156" width="190" height="26" as="geometry" />
        </mxCell>
        <mxCell id="VhQvMDxb6IF8oOMxA0_s-8" value="" style="shape=partialRectangle;top=0;left=0;bottom=0;html=1;fillColor=none;align=left;verticalAlign=top;spacingLeft=4;spacingRight=4;whiteSpace=wrap;overflow=hidden;rotatable=0;points=[];portConstraint=eastwest;part=1;" connectable="0" vertex="1" parent="VhQvMDxb6IF8oOMxA0_s-7">
          <mxGeometry width="30" height="26" as="geometry" />
        </mxCell>
        <mxCell id="VhQvMDxb6IF8oOMxA0_s-5" value="Catergory (int)" style="shape=partialRectangle;top=0;left=0;right=0;bottom=0;html=1;align=left;verticalAlign=top;fillColor=#FFCCCC;spacingLeft=34;spacingRight=4;whiteSpace=wrap;overflow=hidden;rotatable=0;points=[[0,0.5],[1,0.5]];portConstraint=eastwest;dropTarget=0;" vertex="1" parent="2e49270ec7c68f3f-19">
          <mxGeometry y="182" width="190" height="26" as="geometry" />
        </mxCell>
        <mxCell id="VhQvMDxb6IF8oOMxA0_s-6" value="" style="shape=partialRectangle;top=0;left=0;bottom=0;html=1;fillColor=none;align=left;verticalAlign=top;spacingLeft=4;spacingRight=4;whiteSpace=wrap;overflow=hidden;rotatable=0;points=[];portConstraint=eastwest;part=1;" connectable="0" vertex="1" parent="VhQvMDxb6IF8oOMxA0_s-5">
          <mxGeometry width="30" height="26" as="geometry" />
        </mxCell>
        <mxCell id="VhQvMDxb6IF8oOMxA0_s-9" value="Residence (int)" style="shape=partialRectangle;top=0;left=0;right=0;bottom=0;html=1;align=left;verticalAlign=top;fillColor=#FFCCE6;spacingLeft=34;spacingRight=4;whiteSpace=wrap;overflow=hidden;rotatable=0;points=[[0,0.5],[1,0.5]];portConstraint=eastwest;dropTarget=0;" vertex="1" parent="2e49270ec7c68f3f-19">
          <mxGeometry y="208" width="190" height="26" as="geometry" />
        </mxCell>
        <mxCell id="VhQvMDxb6IF8oOMxA0_s-10" value="" style="shape=partialRectangle;top=0;left=0;bottom=0;html=1;fillColor=none;align=left;verticalAlign=top;spacingLeft=4;spacingRight=4;whiteSpace=wrap;overflow=hidden;rotatable=0;points=[];portConstraint=eastwest;part=1;" connectable="0" vertex="1" parent="VhQvMDxb6IF8oOMxA0_s-9">
          <mxGeometry width="30" height="26" as="geometry" />
        </mxCell>
        <mxCell id="VhQvMDxb6IF8oOMxA0_s-11" value="Description (var char, [92])" style="shape=partialRectangle;top=0;left=0;right=0;bottom=0;html=1;align=left;verticalAlign=top;fillColor=#E6FFCC;spacingLeft=34;spacingRight=4;whiteSpace=wrap;overflow=hidden;rotatable=0;points=[[0,0.5],[1,0.5]];portConstraint=eastwest;dropTarget=0;" vertex="1" parent="2e49270ec7c68f3f-19">
          <mxGeometry y="234" width="190" height="26" as="geometry" />
        </mxCell>
        <mxCell id="VhQvMDxb6IF8oOMxA0_s-12" value="" style="shape=partialRectangle;top=0;left=0;bottom=0;html=1;fillColor=none;align=left;verticalAlign=top;spacingLeft=4;spacingRight=4;whiteSpace=wrap;overflow=hidden;rotatable=0;points=[];portConstraint=eastwest;part=1;" connectable="0" vertex="1" parent="VhQvMDxb6IF8oOMxA0_s-11">
          <mxGeometry width="30" height="26" as="geometry" />
        </mxCell>
        <mxCell id="2e49270ec7c68f3f-30" value="Residence" style="swimlane;html=1;fontStyle=0;childLayout=stackLayout;horizontal=1;startSize=26;fillColor=#FFCCE6;horizontalStack=0;resizeParent=1;resizeLast=0;collapsible=1;marginBottom=0;swimlaneFillColor=#ffffff;align=center;rounded=0;shadow=0;comic=0;labelBackgroundColor=none;strokeWidth=1;fontFamily=Verdana;fontSize=14" vertex="1" parent="1">
          <mxGeometry x="630" y="470" width="180" height="88" as="geometry" />
        </mxCell>
        <mxCell id="2e49270ec7c68f3f-33" value="Residence_ID" style="shape=partialRectangle;top=0;left=0;right=0;bottom=0;html=1;align=left;verticalAlign=top;fillColor=none;spacingLeft=34;spacingRight=4;whiteSpace=wrap;overflow=hidden;rotatable=0;points=[[0,0.5],[1,0.5]];portConstraint=eastwest;dropTarget=0;" vertex="1" parent="2e49270ec7c68f3f-30">
          <mxGeometry y="26" width="180" height="26" as="geometry" />
        </mxCell>
        <mxCell id="2e49270ec7c68f3f-34" value="" style="shape=partialRectangle;top=0;left=0;bottom=0;html=1;fillColor=none;align=left;verticalAlign=top;spacingLeft=4;spacingRight=4;whiteSpace=wrap;overflow=hidden;rotatable=0;points=[];portConstraint=eastwest;part=1;" vertex="1" connectable="0" parent="2e49270ec7c68f3f-33">
          <mxGeometry width="30" height="26" as="geometry" />
        </mxCell>
        <mxCell id="2e49270ec7c68f3f-35" value="Residence (var char, [27])" style="shape=partialRectangle;top=0;left=0;right=0;bottom=0;html=1;align=left;verticalAlign=top;fillColor=none;spacingLeft=34;spacingRight=4;whiteSpace=wrap;overflow=hidden;rotatable=0;points=[[0,0.5],[1,0.5]];portConstraint=eastwest;dropTarget=0;" vertex="1" parent="2e49270ec7c68f3f-30">
          <mxGeometry y="52" width="180" height="26" as="geometry" />
        </mxCell>
        <mxCell id="2e49270ec7c68f3f-36" value="" style="shape=partialRectangle;top=0;left=0;bottom=0;html=1;fillColor=none;align=left;verticalAlign=top;spacingLeft=4;spacingRight=4;whiteSpace=wrap;overflow=hidden;rotatable=0;points=[];portConstraint=eastwest;part=1;" vertex="1" connectable="0" parent="2e49270ec7c68f3f-35">
          <mxGeometry width="30" height="26" as="geometry" />
        </mxCell>
        <mxCell id="2e49270ec7c68f3f-39" value="" style="shape=partialRectangle;top=0;left=0;right=0;bottom=0;html=1;align=left;verticalAlign=top;fillColor=none;spacingLeft=34;spacingRight=4;whiteSpace=wrap;overflow=hidden;rotatable=0;points=[[0,0.5],[1,0.5]];portConstraint=eastwest;dropTarget=0;" vertex="1" parent="2e49270ec7c68f3f-30">
          <mxGeometry y="78" width="180" height="10" as="geometry" />
        </mxCell>
        <mxCell id="2e49270ec7c68f3f-40" value="" style="shape=partialRectangle;top=0;left=0;bottom=0;html=1;fillColor=none;align=left;verticalAlign=top;spacingLeft=4;spacingRight=4;whiteSpace=wrap;overflow=hidden;rotatable=0;points=[];portConstraint=eastwest;part=1;" vertex="1" connectable="0" parent="2e49270ec7c68f3f-39">
          <mxGeometry width="30" height="10" as="geometry" />
        </mxCell>
        <mxCell id="2e49270ec7c68f3f-41" value="Colour" style="swimlane;html=1;fontStyle=0;childLayout=stackLayout;horizontal=1;startSize=26;fillColor=#CCE5FF;horizontalStack=0;resizeParent=1;resizeLast=0;collapsible=1;marginBottom=0;swimlaneFillColor=#ffffff;align=center;rounded=0;shadow=0;comic=0;labelBackgroundColor=none;strokeWidth=1;fontFamily=Verdana;fontSize=14" vertex="1" parent="1">
          <mxGeometry y="340" width="240" height="160" as="geometry" />
        </mxCell>
        <mxCell id="2e49270ec7c68f3f-46" value="Colour_ID" style="shape=partialRectangle;top=0;left=0;right=0;bottom=0;html=1;align=left;verticalAlign=top;fillColor=none;spacingLeft=60;spacingRight=4;whiteSpace=wrap;overflow=hidden;rotatable=0;points=[[0,0.5],[1,0.5]];portConstraint=eastwest;dropTarget=0;" vertex="1" parent="2e49270ec7c68f3f-41">
          <mxGeometry y="26" width="240" height="26" as="geometry" />
        </mxCell>
        <mxCell id="2e49270ec7c68f3f-47" value="" style="shape=partialRectangle;top=0;left=0;bottom=0;html=1;fillColor=none;align=left;verticalAlign=top;spacingLeft=4;spacingRight=4;whiteSpace=wrap;overflow=hidden;rotatable=0;points=[];portConstraint=eastwest;part=1;" vertex="1" connectable="0" parent="2e49270ec7c68f3f-46">
          <mxGeometry width="56" height="26" as="geometry" />
        </mxCell>
        <mxCell id="IdTiQfDj3fDiPq1f-7IG-6" value="1st mane colour (var char, [20])" style="shape=partialRectangle;top=0;left=0;right=0;bottom=0;html=1;align=left;verticalAlign=top;fillColor=none;spacingLeft=60;spacingRight=4;whiteSpace=wrap;overflow=hidden;rotatable=0;points=[[0,0.5],[1,0.5]];portConstraint=eastwest;dropTarget=0;" vertex="1" parent="2e49270ec7c68f3f-41">
          <mxGeometry y="52" width="240" height="26" as="geometry" />
        </mxCell>
        <mxCell id="IdTiQfDj3fDiPq1f-7IG-7" value="" style="shape=partialRectangle;top=0;left=0;bottom=0;html=1;fillColor=none;align=left;verticalAlign=top;spacingLeft=4;spacingRight=4;whiteSpace=wrap;overflow=hidden;rotatable=0;points=[];portConstraint=eastwest;part=1;" connectable="0" vertex="1" parent="IdTiQfDj3fDiPq1f-7IG-6">
          <mxGeometry width="56" height="26" as="geometry" />
        </mxCell>
        <mxCell id="IdTiQfDj3fDiPq1f-7IG-8" value="2nd mane colour (var char, [20])" style="shape=partialRectangle;top=0;left=0;right=0;bottom=0;html=1;align=left;verticalAlign=top;fillColor=none;spacingLeft=60;spacingRight=4;whiteSpace=wrap;overflow=hidden;rotatable=0;points=[[0,0.5],[1,0.5]];portConstraint=eastwest;dropTarget=0;" vertex="1" parent="2e49270ec7c68f3f-41">
          <mxGeometry y="78" width="240" height="26" as="geometry" />
        </mxCell>
        <mxCell id="IdTiQfDj3fDiPq1f-7IG-9" value="" style="shape=partialRectangle;top=0;left=0;bottom=0;html=1;fillColor=none;align=left;verticalAlign=top;spacingLeft=4;spacingRight=4;whiteSpace=wrap;overflow=hidden;rotatable=0;points=[];portConstraint=eastwest;part=1;" connectable="0" vertex="1" parent="IdTiQfDj3fDiPq1f-7IG-8">
          <mxGeometry width="56" height="26" as="geometry" />
        </mxCell>
        <mxCell id="VhQvMDxb6IF8oOMxA0_s-25" value="1st body colour (var char, [20])" style="shape=partialRectangle;top=0;left=0;right=0;bottom=0;html=1;align=left;verticalAlign=top;fillColor=none;spacingLeft=60;spacingRight=4;whiteSpace=wrap;overflow=hidden;rotatable=0;points=[[0,0.5],[1,0.5]];portConstraint=eastwest;dropTarget=0;" vertex="1" parent="2e49270ec7c68f3f-41">
          <mxGeometry y="104" width="240" height="26" as="geometry" />
        </mxCell>
        <mxCell id="VhQvMDxb6IF8oOMxA0_s-26" value="" style="shape=partialRectangle;top=0;left=0;bottom=0;html=1;fillColor=none;align=left;verticalAlign=top;spacingLeft=4;spacingRight=4;whiteSpace=wrap;overflow=hidden;rotatable=0;points=[];portConstraint=eastwest;part=1;" connectable="0" vertex="1" parent="VhQvMDxb6IF8oOMxA0_s-25">
          <mxGeometry width="56" height="26" as="geometry" />
        </mxCell>
        <mxCell id="vxDx3Zm6sBLtaqBPiLl9-37" value="2nd body colour (var char, [20])" style="shape=partialRectangle;top=0;left=0;right=0;bottom=0;html=1;align=left;verticalAlign=top;fillColor=none;spacingLeft=60;spacingRight=4;whiteSpace=wrap;overflow=hidden;rotatable=0;points=[[0,0.5],[1,0.5]];portConstraint=eastwest;dropTarget=0;" vertex="1" parent="2e49270ec7c68f3f-41">
          <mxGeometry y="130" width="240" height="26" as="geometry" />
        </mxCell>
        <mxCell id="vxDx3Zm6sBLtaqBPiLl9-38" value="" style="shape=partialRectangle;top=0;left=0;bottom=0;html=1;fillColor=none;align=left;verticalAlign=top;spacingLeft=4;spacingRight=4;whiteSpace=wrap;overflow=hidden;rotatable=0;points=[];portConstraint=eastwest;part=1;" connectable="0" vertex="1" parent="vxDx3Zm6sBLtaqBPiLl9-37">
          <mxGeometry width="56" height="26" as="geometry" />
        </mxCell>
        <mxCell id="2e49270ec7c68f3f-64" value="Catergory" style="swimlane;html=1;fontStyle=0;childLayout=stackLayout;horizontal=1;startSize=26;fillColor=#FFCCCC;horizontalStack=0;resizeParent=1;resizeLast=0;collapsible=1;marginBottom=0;swimlaneFillColor=#ffffff;align=center;rounded=0;shadow=0;comic=0;labelBackgroundColor=none;strokeWidth=1;fontFamily=Verdana;fontSize=14" vertex="1" parent="1">
          <mxGeometry x="550" y="360" width="200" height="80" as="geometry" />
        </mxCell>
        <mxCell id="2e49270ec7c68f3f-69" value="Catergory ID" style="shape=partialRectangle;top=0;left=0;right=0;bottom=0;html=1;align=left;verticalAlign=top;fillColor=none;spacingLeft=60;spacingRight=4;whiteSpace=wrap;overflow=hidden;rotatable=0;points=[[0,0.5],[1,0.5]];portConstraint=eastwest;dropTarget=0;" vertex="1" parent="2e49270ec7c68f3f-64">
          <mxGeometry y="26" width="200" height="26" as="geometry" />
        </mxCell>
        <mxCell id="2e49270ec7c68f3f-70" value="" style="shape=partialRectangle;top=0;left=0;bottom=0;html=1;fillColor=none;align=left;verticalAlign=top;spacingLeft=4;spacingRight=4;whiteSpace=wrap;overflow=hidden;rotatable=0;points=[];portConstraint=eastwest;part=1;" vertex="1" connectable="0" parent="2e49270ec7c68f3f-69">
          <mxGeometry width="56" height="26" as="geometry" />
        </mxCell>
        <mxCell id="VhQvMDxb6IF8oOMxA0_s-29" value="catergory (var char, [28])" style="shape=partialRectangle;top=0;left=0;right=0;bottom=0;html=1;align=left;verticalAlign=top;fillColor=none;spacingLeft=60;spacingRight=4;whiteSpace=wrap;overflow=hidden;rotatable=0;points=[[0,0.5],[1,0.5]];portConstraint=eastwest;dropTarget=0;" vertex="1" parent="2e49270ec7c68f3f-64">
          <mxGeometry y="52" width="200" height="26" as="geometry" />
        </mxCell>
        <mxCell id="VhQvMDxb6IF8oOMxA0_s-30" value="" style="shape=partialRectangle;top=0;left=0;bottom=0;html=1;fillColor=none;align=left;verticalAlign=top;spacingLeft=4;spacingRight=4;whiteSpace=wrap;overflow=hidden;rotatable=0;points=[];portConstraint=eastwest;part=1;" connectable="0" vertex="1" parent="VhQvMDxb6IF8oOMxA0_s-29">
          <mxGeometry width="56" height="26" as="geometry" />
        </mxCell>
        <mxCell id="VhQvMDxb6IF8oOMxA0_s-37" value="" style="rounded=0;whiteSpace=wrap;html=1;" vertex="1" parent="1">
          <mxGeometry x="160" y="-10" width="320" height="210" as="geometry" />
        </mxCell>
        <mxCell id="VhQvMDxb6IF8oOMxA0_s-38" value="" style="rounded=1;whiteSpace=wrap;html=1;" vertex="1" parent="1">
          <mxGeometry x="170" width="100" height="60" as="geometry" />
        </mxCell>
        <mxCell id="VhQvMDxb6IF8oOMxA0_s-39" value="&lt;font style=&quot;font-size: 15px;&quot;&gt;My Little Pony Characters&lt;/font&gt;" style="rounded=1;whiteSpace=wrap;html=1;strokeColor=#ffffff;" vertex="1" parent="1">
          <mxGeometry x="280" width="180" height="60" as="geometry" />
        </mxCell>
        <mxCell id="vxDx3Zm6sBLtaqBPiLl9-1" value="" style="rounded=1;whiteSpace=wrap;html=1;" vertex="1" parent="1">
          <mxGeometry x="280" y="70" width="180" height="70" as="geometry" />
        </mxCell>
        <mxCell id="vxDx3Zm6sBLtaqBPiLl9-2" value="" style="rounded=1;whiteSpace=wrap;html=1;" vertex="1" parent="1">
          <mxGeometry x="170" y="70" width="100" height="120" as="geometry" />
        </mxCell>
        <mxCell id="vxDx3Zm6sBLtaqBPiLl9-4" value="&lt;font style=&quot;font-size: 6px;&quot;&gt;Mane colour&lt;/font&gt;" style="rounded=1;whiteSpace=wrap;html=1;" vertex="1" parent="1">
          <mxGeometry x="180" y="112" width="80" height="10" as="geometry" />
        </mxCell>
        <mxCell id="vxDx3Zm6sBLtaqBPiLl9-8" value="&lt;span style=&quot;font-size: 6px;&quot;&gt;Quick search&lt;/span&gt;" style="rounded=1;whiteSpace=wrap;html=1;" vertex="1" parent="1">
          <mxGeometry x="180" y="88" width="80" height="10" as="geometry" />
        </mxCell>
        <mxCell id="vxDx3Zm6sBLtaqBPiLl9-9" value="&lt;font style=&quot;font-size: 6px;&quot;&gt;Catergory&lt;/font&gt;" style="rounded=1;whiteSpace=wrap;html=1;" vertex="1" parent="1">
          <mxGeometry x="180" y="100" width="80" height="10" as="geometry" />
        </mxCell>
        <mxCell id="vxDx3Zm6sBLtaqBPiLl9-13" value="&lt;font style=&quot;font-size: 6px;&quot;&gt;add entry&lt;/font&gt;" style="rounded=1;whiteSpace=wrap;html=1;" vertex="1" parent="1">
          <mxGeometry x="180" y="175" width="80" height="10" as="geometry" />
        </mxCell>
        <mxCell id="vxDx3Zm6sBLtaqBPiLl9-14" value="&lt;span style=&quot;font-size: 6px;&quot;&gt;Residence&lt;/span&gt;" style="rounded=1;whiteSpace=wrap;html=1;" vertex="1" parent="1">
          <mxGeometry x="180" y="112" width="80" height="10" as="geometry" />
        </mxCell>
        <mxCell id="vxDx3Zm6sBLtaqBPiLl9-15" value="&lt;font style=&quot;font-size: 6px;&quot;&gt;Main characters&lt;/font&gt;" style="rounded=1;whiteSpace=wrap;html=1;" vertex="1" parent="1">
          <mxGeometry x="180" y="150" width="80" height="10" as="geometry" />
        </mxCell>
        <mxCell id="vxDx3Zm6sBLtaqBPiLl9-16" value="&lt;font style=&quot;font-size: 6px;&quot;&gt;Show all&lt;/font&gt;" style="rounded=1;whiteSpace=wrap;html=1;" vertex="1" parent="1">
          <mxGeometry x="180" y="75" width="80" height="10" as="geometry" />
        </mxCell>
        <mxCell id="vxDx3Zm6sBLtaqBPiLl9-17" value="&lt;span style=&quot;font-size: 6px;&quot;&gt;Non pony&lt;/span&gt;" style="rounded=1;whiteSpace=wrap;html=1;" vertex="1" parent="1">
          <mxGeometry x="180" y="163" width="80" height="10" as="geometry" />
        </mxCell>
        <mxCell id="vxDx3Zm6sBLtaqBPiLl9-18" value="&lt;font style=&quot;font-size: 6px;&quot;&gt;Body colour&lt;/font&gt;" style="rounded=1;whiteSpace=wrap;html=1;" vertex="1" parent="1">
          <mxGeometry x="180" y="137" width="80" height="10" as="geometry" />
        </mxCell>
        <mxCell id="vxDx3Zm6sBLtaqBPiLl9-19" value="&lt;font style=&quot;font-size: 8px;&quot;&gt;Fluttershy (Main Character &amp;amp; Generation 4&lt;/font&gt;" style="rounded=1;whiteSpace=wrap;html=1;strokeColor=#FFFFFF;align=left;" vertex="1" parent="1">
          <mxGeometry x="290" y="77.5" width="160" height="10" as="geometry" />
        </mxCell>
        <mxCell id="vxDx3Zm6sBLtaqBPiLl9-21" value="&lt;font style=&quot;font-size: 6px;&quot;&gt;Mane colour&lt;/font&gt;" style="rounded=1;whiteSpace=wrap;html=1;" vertex="1" parent="1">
          <mxGeometry x="180" y="125" width="80" height="10" as="geometry" />
        </mxCell>
        <mxCell id="vxDx3Zm6sBLtaqBPiLl9-23" value="&lt;span style=&quot;font-size: 8px;&quot;&gt;Residence: Cottage near Ponyville&lt;/span&gt;" style="rounded=1;whiteSpace=wrap;html=1;strokeColor=#FFFFFF;align=left;" vertex="1" parent="1">
          <mxGeometry x="290" y="87.5" width="145" height="10" as="geometry" />
        </mxCell>
        <mxCell id="vxDx3Zm6sBLtaqBPiLl9-24" value="&lt;font style=&quot;font-size: 8px;&quot;&gt;Mane colour: Pink&lt;/font&gt;" style="rounded=1;whiteSpace=wrap;html=1;strokeColor=#FFFFFF;align=left;" vertex="1" parent="1">
          <mxGeometry x="290" y="97.5" width="80" height="10" as="geometry" />
        </mxCell>
        <mxCell id="vxDx3Zm6sBLtaqBPiLl9-25" value="&lt;font style=&quot;font-size: 8px;&quot;&gt;Body colour: yellow&lt;/font&gt;" style="rounded=1;whiteSpace=wrap;html=1;strokeColor=#ffffff;align=left;" vertex="1" parent="1">
          <mxGeometry x="290" y="107.5" width="120" height="10" as="geometry" />
        </mxCell>
        <mxCell id="vxDx3Zm6sBLtaqBPiLl9-26" value="&lt;font style=&quot;font-size: 8px;&quot;&gt;A shy and kind Pegasus who loves animals&lt;/font&gt;" style="rounded=1;whiteSpace=wrap;html=1;strokeColor=#FFFFFF;" vertex="1" parent="1">
          <mxGeometry x="290" y="118.5" width="160" height="10" as="geometry" />
        </mxCell>
        <mxCell id="vxDx3Zm6sBLtaqBPiLl9-41" style="edgeStyle=orthogonalEdgeStyle;rounded=0;orthogonalLoop=1;jettySize=auto;html=1;exitX=1;exitY=0.5;exitDx=0;exitDy=0;entryX=0;entryY=0.25;entryDx=0;entryDy=0;" edge="1" parent="1" source="VhQvMDxb6IF8oOMxA0_s-5" target="2e49270ec7c68f3f-64">
          <mxGeometry relative="1" as="geometry" />
        </mxCell>
        <mxCell id="vxDx3Zm6sBLtaqBPiLl9-60" style="edgeStyle=orthogonalEdgeStyle;rounded=0;orthogonalLoop=1;jettySize=auto;html=1;exitX=1;exitY=0.5;exitDx=0;exitDy=0;entryX=-0.02;entryY=-0.241;entryDx=0;entryDy=0;entryPerimeter=0;" edge="1" parent="1" source="VhQvMDxb6IF8oOMxA0_s-9" target="2e49270ec7c68f3f-33">
          <mxGeometry relative="1" as="geometry" />
        </mxCell>
        <mxCell id="IdTiQfDj3fDiPq1f-7IG-10" style="edgeStyle=orthogonalEdgeStyle;rounded=0;orthogonalLoop=1;jettySize=auto;html=1;entryX=0.996;entryY=0.106;entryDx=0;entryDy=0;entryPerimeter=0;" edge="1" parent="1" source="VhQvMDxb6IF8oOMxA0_s-7" target="2e49270ec7c68f3f-41">
          <mxGeometry relative="1" as="geometry" />
        </mxCell>
        <mxCell id="fjrM6RVfVKzAaWCYe4X4-1" style="edgeStyle=orthogonalEdgeStyle;rounded=0;orthogonalLoop=1;jettySize=auto;html=1;exitX=0;exitY=0.5;exitDx=0;exitDy=0;entryX=0.992;entryY=0.106;entryDx=0;entryDy=0;entryPerimeter=0;" edge="1" parent="1" source="VhQvMDxb6IF8oOMxA0_s-1" target="2e49270ec7c68f3f-41">
          <mxGeometry relative="1" as="geometry" />
        </mxCell>
        <mxCell id="fjrM6RVfVKzAaWCYe4X4-4" value="" style="endArrow=none;html=1;rounded=0;entryX=1;entryY=0;entryDx=0;entryDy=0;" edge="1" parent="1" target="VhQvMDxb6IF8oOMxA0_s-38">
          <mxGeometry width="50" height="50" relative="1" as="geometry">
            <mxPoint x="170" y="60" as="sourcePoint" />
            <mxPoint x="220" y="10" as="targetPoint" />
          </mxGeometry>
        </mxCell>
        <mxCell id="fjrM6RVfVKzAaWCYe4X4-5" value="" style="endArrow=none;html=1;rounded=0;entryX=1;entryY=1;entryDx=0;entryDy=0;exitX=0;exitY=0;exitDx=0;exitDy=0;" edge="1" parent="1" source="VhQvMDxb6IF8oOMxA0_s-38" target="VhQvMDxb6IF8oOMxA0_s-38">
          <mxGeometry width="50" height="50" relative="1" as="geometry">
            <mxPoint x="180" y="70" as="sourcePoint" />
            <mxPoint x="280" y="10" as="targetPoint" />
          </mxGeometry>
        </mxCell>
        <mxCell id="fjrM6RVfVKzAaWCYe4X4-6" value="" style="rounded=0;whiteSpace=wrap;html=1;" vertex="1" parent="1">
          <mxGeometry x="500" y="-10" width="320" height="230" as="geometry" />
        </mxCell>
        <mxCell id="fjrM6RVfVKzAaWCYe4X4-7" value="" style="rounded=1;whiteSpace=wrap;html=1;" vertex="1" parent="1">
          <mxGeometry x="510" width="100" height="60" as="geometry" />
        </mxCell>
        <mxCell id="fjrM6RVfVKzAaWCYe4X4-8" value="&lt;font style=&quot;font-size: 15px;&quot;&gt;My Little Pony Characters&lt;/font&gt;" style="rounded=1;whiteSpace=wrap;html=1;strokeColor=#ffffff;" vertex="1" parent="1">
          <mxGeometry x="620" width="180" height="60" as="geometry" />
        </mxCell>
        <mxCell id="fjrM6RVfVKzAaWCYe4X4-10" value="" style="rounded=1;whiteSpace=wrap;html=1;" vertex="1" parent="1">
          <mxGeometry x="510" y="70" width="100" height="120" as="geometry" />
        </mxCell>
        <mxCell id="fjrM6RVfVKzAaWCYe4X4-11" value="&lt;font style=&quot;font-size: 6px;&quot;&gt;Mane colour&lt;/font&gt;" style="rounded=1;whiteSpace=wrap;html=1;" vertex="1" parent="1">
          <mxGeometry x="520" y="112" width="80" height="10" as="geometry" />
        </mxCell>
        <mxCell id="fjrM6RVfVKzAaWCYe4X4-12" value="&lt;span style=&quot;font-size: 6px;&quot;&gt;Quick search&lt;/span&gt;" style="rounded=1;whiteSpace=wrap;html=1;" vertex="1" parent="1">
          <mxGeometry x="520" y="88" width="80" height="10" as="geometry" />
        </mxCell>
        <mxCell id="fjrM6RVfVKzAaWCYe4X4-13" value="&lt;font style=&quot;font-size: 6px;&quot;&gt;Catergory&lt;/font&gt;" style="rounded=1;whiteSpace=wrap;html=1;" vertex="1" parent="1">
          <mxGeometry x="520" y="100" width="80" height="10" as="geometry" />
        </mxCell>
        <mxCell id="fjrM6RVfVKzAaWCYe4X4-14" value="&lt;font style=&quot;font-size: 6px;&quot;&gt;add entry&lt;/font&gt;" style="rounded=1;whiteSpace=wrap;html=1;" vertex="1" parent="1">
          <mxGeometry x="520" y="175" width="80" height="10" as="geometry" />
        </mxCell>
        <mxCell id="fjrM6RVfVKzAaWCYe4X4-15" value="&lt;span style=&quot;font-size: 6px;&quot;&gt;Residence&lt;/span&gt;" style="rounded=1;whiteSpace=wrap;html=1;" vertex="1" parent="1">
          <mxGeometry x="520" y="112" width="80" height="10" as="geometry" />
        </mxCell>
        <mxCell id="fjrM6RVfVKzAaWCYe4X4-16" value="&lt;font style=&quot;font-size: 6px;&quot;&gt;Main characters&lt;/font&gt;" style="rounded=1;whiteSpace=wrap;html=1;" vertex="1" parent="1">
          <mxGeometry x="520" y="150" width="80" height="10" as="geometry" />
        </mxCell>
        <mxCell id="fjrM6RVfVKzAaWCYe4X4-17" value="&lt;font style=&quot;font-size: 6px;&quot;&gt;Show all&lt;/font&gt;" style="rounded=1;whiteSpace=wrap;html=1;" vertex="1" parent="1">
          <mxGeometry x="520" y="75" width="80" height="10" as="geometry" />
        </mxCell>
        <mxCell id="fjrM6RVfVKzAaWCYe4X4-18" value="&lt;span style=&quot;font-size: 6px;&quot;&gt;Non pony&lt;/span&gt;" style="rounded=1;whiteSpace=wrap;html=1;" vertex="1" parent="1">
          <mxGeometry x="520" y="163" width="80" height="10" as="geometry" />
        </mxCell>
        <mxCell id="fjrM6RVfVKzAaWCYe4X4-19" value="&lt;font style=&quot;font-size: 6px;&quot;&gt;Body colour&lt;/font&gt;" style="rounded=1;whiteSpace=wrap;html=1;" vertex="1" parent="1">
          <mxGeometry x="520" y="137" width="80" height="10" as="geometry" />
        </mxCell>
        <mxCell id="fjrM6RVfVKzAaWCYe4X4-21" value="&lt;font style=&quot;font-size: 6px;&quot;&gt;Mane colour&lt;/font&gt;" style="rounded=1;whiteSpace=wrap;html=1;" vertex="1" parent="1">
          <mxGeometry x="520" y="125" width="80" height="10" as="geometry" />
        </mxCell>
        <mxCell id="fjrM6RVfVKzAaWCYe4X4-28" value="" style="endArrow=none;html=1;rounded=0;entryX=1;entryY=0;entryDx=0;entryDy=0;" edge="1" parent="1" target="fjrM6RVfVKzAaWCYe4X4-7">
          <mxGeometry width="50" height="50" relative="1" as="geometry">
            <mxPoint x="510" y="60" as="sourcePoint" />
            <mxPoint x="560" y="10" as="targetPoint" />
          </mxGeometry>
        </mxCell>
        <mxCell id="fjrM6RVfVKzAaWCYe4X4-29" value="" style="endArrow=none;html=1;rounded=0;entryX=1;entryY=1;entryDx=0;entryDy=0;exitX=0;exitY=0;exitDx=0;exitDy=0;" edge="1" parent="1" source="fjrM6RVfVKzAaWCYe4X4-7" target="fjrM6RVfVKzAaWCYe4X4-7">
          <mxGeometry width="50" height="50" relative="1" as="geometry">
            <mxPoint x="520" y="70" as="sourcePoint" />
            <mxPoint x="620" y="10" as="targetPoint" />
          </mxGeometry>
        </mxCell>
        <mxCell id="fjrM6RVfVKzAaWCYe4X4-61" value="" style="rounded=0;whiteSpace=wrap;html=1;" vertex="1" parent="1">
          <mxGeometry x="160" y="-230" width="320" height="210" as="geometry" />
        </mxCell>
        <mxCell id="fjrM6RVfVKzAaWCYe4X4-62" value="" style="rounded=1;whiteSpace=wrap;html=1;" vertex="1" parent="1">
          <mxGeometry x="170" y="-220" width="100" height="60" as="geometry" />
        </mxCell>
        <mxCell id="fjrM6RVfVKzAaWCYe4X4-63" value="My little pony database" style="rounded=1;whiteSpace=wrap;html=1;" vertex="1" parent="1">
          <mxGeometry x="280" y="-220" width="180" height="60" as="geometry" />
        </mxCell>
        <mxCell id="fjrM6RVfVKzAaWCYe4X4-64" value="&lt;font style=&quot;font-size: 8px;&quot;&gt;Sorry there are no results for your search of &#39;[search]&#39;&lt;/font&gt;" style="rounded=1;whiteSpace=wrap;html=1;fillColor=#f8cecc;strokeColor=#b85450;" vertex="1" parent="1">
          <mxGeometry x="275" y="-151.25" width="200" height="21" as="geometry" />
        </mxCell>
        <mxCell id="fjrM6RVfVKzAaWCYe4X4-65" value="" style="rounded=1;whiteSpace=wrap;html=1;" vertex="1" parent="1">
          <mxGeometry x="170" y="-150" width="100" height="120" as="geometry" />
        </mxCell>
        <mxCell id="fjrM6RVfVKzAaWCYe4X4-66" value="&lt;font style=&quot;font-size: 6px;&quot;&gt;Mane colour&lt;/font&gt;" style="rounded=1;whiteSpace=wrap;html=1;" vertex="1" parent="1">
          <mxGeometry x="180" y="-108" width="80" height="10" as="geometry" />
        </mxCell>
        <mxCell id="fjrM6RVfVKzAaWCYe4X4-67" value="&lt;span style=&quot;font-size: 6px;&quot;&gt;Quick search&lt;/span&gt;" style="rounded=1;whiteSpace=wrap;html=1;" vertex="1" parent="1">
          <mxGeometry x="180" y="-132" width="80" height="10" as="geometry" />
        </mxCell>
        <mxCell id="fjrM6RVfVKzAaWCYe4X4-68" value="&lt;font style=&quot;font-size: 6px;&quot;&gt;Catergory&lt;/font&gt;" style="rounded=1;whiteSpace=wrap;html=1;" vertex="1" parent="1">
          <mxGeometry x="180" y="-120" width="80" height="10" as="geometry" />
        </mxCell>
        <mxCell id="fjrM6RVfVKzAaWCYe4X4-69" value="&lt;font style=&quot;font-size: 6px;&quot;&gt;add entry&lt;/font&gt;" style="rounded=1;whiteSpace=wrap;html=1;" vertex="1" parent="1">
          <mxGeometry x="180" y="-45" width="80" height="10" as="geometry" />
        </mxCell>
        <mxCell id="fjrM6RVfVKzAaWCYe4X4-70" value="&lt;span style=&quot;font-size: 6px;&quot;&gt;Residence&lt;/span&gt;" style="rounded=1;whiteSpace=wrap;html=1;" vertex="1" parent="1">
          <mxGeometry x="180" y="-108" width="80" height="10" as="geometry" />
        </mxCell>
        <mxCell id="fjrM6RVfVKzAaWCYe4X4-71" value="&lt;font style=&quot;font-size: 6px;&quot;&gt;Main characters&lt;/font&gt;" style="rounded=1;whiteSpace=wrap;html=1;" vertex="1" parent="1">
          <mxGeometry x="180" y="-70" width="80" height="10" as="geometry" />
        </mxCell>
        <mxCell id="fjrM6RVfVKzAaWCYe4X4-72" value="&lt;font style=&quot;font-size: 6px;&quot;&gt;Show all&lt;/font&gt;" style="rounded=1;whiteSpace=wrap;html=1;" vertex="1" parent="1">
          <mxGeometry x="180" y="-145" width="80" height="10" as="geometry" />
        </mxCell>
        <mxCell id="fjrM6RVfVKzAaWCYe4X4-73" value="&lt;span style=&quot;font-size: 6px;&quot;&gt;Non pony&lt;/span&gt;" style="rounded=1;whiteSpace=wrap;html=1;" vertex="1" parent="1">
          <mxGeometry x="180" y="-57" width="80" height="10" as="geometry" />
        </mxCell>
        <mxCell id="fjrM6RVfVKzAaWCYe4X4-74" value="&lt;font style=&quot;font-size: 6px;&quot;&gt;Body colour&lt;/font&gt;" style="rounded=1;whiteSpace=wrap;html=1;" vertex="1" parent="1">
          <mxGeometry x="180" y="-83" width="80" height="10" as="geometry" />
        </mxCell>
        <mxCell id="fjrM6RVfVKzAaWCYe4X4-76" value="&lt;font style=&quot;font-size: 6px;&quot;&gt;Mane colour&lt;/font&gt;" style="rounded=1;whiteSpace=wrap;html=1;" vertex="1" parent="1">
          <mxGeometry x="180" y="-95" width="80" height="10" as="geometry" />
        </mxCell>
        <mxCell id="fjrM6RVfVKzAaWCYe4X4-83" value="" style="endArrow=none;html=1;rounded=0;entryX=1;entryY=0;entryDx=0;entryDy=0;" edge="1" parent="1" target="fjrM6RVfVKzAaWCYe4X4-62">
          <mxGeometry width="50" height="50" relative="1" as="geometry">
            <mxPoint x="170" y="-160" as="sourcePoint" />
            <mxPoint x="220" y="-210" as="targetPoint" />
          </mxGeometry>
        </mxCell>
        <mxCell id="fjrM6RVfVKzAaWCYe4X4-84" value="" style="endArrow=none;html=1;rounded=0;entryX=1;entryY=1;entryDx=0;entryDy=0;exitX=0;exitY=0;exitDx=0;exitDy=0;" edge="1" parent="1" source="fjrM6RVfVKzAaWCYe4X4-62" target="fjrM6RVfVKzAaWCYe4X4-62">
          <mxGeometry width="50" height="50" relative="1" as="geometry">
            <mxPoint x="180" y="-150" as="sourcePoint" />
            <mxPoint x="280" y="-210" as="targetPoint" />
          </mxGeometry>
        </mxCell>
        <mxCell id="fjrM6RVfVKzAaWCYe4X4-85" value="" style="rounded=0;whiteSpace=wrap;html=1;" vertex="1" parent="1">
          <mxGeometry x="510" y="-316.75" width="320" height="286.75" as="geometry" />
        </mxCell>
        <mxCell id="fjrM6RVfVKzAaWCYe4X4-86" value="" style="rounded=1;whiteSpace=wrap;html=1;" vertex="1" parent="1">
          <mxGeometry x="520" y="-306.75" width="100" height="60" as="geometry" />
        </mxCell>
        <mxCell id="fjrM6RVfVKzAaWCYe4X4-87" value="My little pony database" style="rounded=1;whiteSpace=wrap;html=1;" vertex="1" parent="1">
          <mxGeometry x="630" y="-306.75" width="180" height="60" as="geometry" />
        </mxCell>
        <mxCell id="fjrM6RVfVKzAaWCYe4X4-89" value="" style="rounded=1;whiteSpace=wrap;html=1;" vertex="1" parent="1">
          <mxGeometry x="520" y="-236.75" width="100" height="120" as="geometry" />
        </mxCell>
        <mxCell id="fjrM6RVfVKzAaWCYe4X4-90" value="&lt;font style=&quot;font-size: 6px;&quot;&gt;Mane colour&lt;/font&gt;" style="rounded=1;whiteSpace=wrap;html=1;" vertex="1" parent="1">
          <mxGeometry x="530" y="-194.75" width="80" height="10" as="geometry" />
        </mxCell>
        <mxCell id="fjrM6RVfVKzAaWCYe4X4-91" value="&lt;span style=&quot;font-size: 6px;&quot;&gt;Quick search&lt;/span&gt;" style="rounded=1;whiteSpace=wrap;html=1;" vertex="1" parent="1">
          <mxGeometry x="530" y="-218.75" width="80" height="10" as="geometry" />
        </mxCell>
        <mxCell id="fjrM6RVfVKzAaWCYe4X4-92" value="&lt;font style=&quot;font-size: 6px;&quot;&gt;Catergory&lt;/font&gt;" style="rounded=1;whiteSpace=wrap;html=1;" vertex="1" parent="1">
          <mxGeometry x="530" y="-206.75" width="80" height="10" as="geometry" />
        </mxCell>
        <mxCell id="fjrM6RVfVKzAaWCYe4X4-93" value="&lt;font style=&quot;font-size: 6px;&quot;&gt;add entry&lt;/font&gt;" style="rounded=1;whiteSpace=wrap;html=1;" vertex="1" parent="1">
          <mxGeometry x="530" y="-131.75" width="80" height="10" as="geometry" />
        </mxCell>
        <mxCell id="fjrM6RVfVKzAaWCYe4X4-94" value="&lt;span style=&quot;font-size: 6px;&quot;&gt;Residence&lt;/span&gt;" style="rounded=1;whiteSpace=wrap;html=1;" vertex="1" parent="1">
          <mxGeometry x="530" y="-194.75" width="80" height="10" as="geometry" />
        </mxCell>
        <mxCell id="fjrM6RVfVKzAaWCYe4X4-95" value="&lt;font style=&quot;font-size: 6px;&quot;&gt;Main characters&lt;/font&gt;" style="rounded=1;whiteSpace=wrap;html=1;" vertex="1" parent="1">
          <mxGeometry x="530" y="-156.75" width="80" height="10" as="geometry" />
        </mxCell>
        <mxCell id="fjrM6RVfVKzAaWCYe4X4-96" value="&lt;font style=&quot;font-size: 6px;&quot;&gt;Show all&lt;/font&gt;" style="rounded=1;whiteSpace=wrap;html=1;" vertex="1" parent="1">
          <mxGeometry x="530" y="-231.75" width="80" height="10" as="geometry" />
        </mxCell>
        <mxCell id="fjrM6RVfVKzAaWCYe4X4-97" value="&lt;span style=&quot;font-size: 6px;&quot;&gt;Non pony&lt;/span&gt;" style="rounded=1;whiteSpace=wrap;html=1;" vertex="1" parent="1">
          <mxGeometry x="530" y="-143.75" width="80" height="10" as="geometry" />
        </mxCell>
        <mxCell id="fjrM6RVfVKzAaWCYe4X4-98" value="&lt;font style=&quot;font-size: 6px;&quot;&gt;Body colour&lt;/font&gt;" style="rounded=1;whiteSpace=wrap;html=1;" vertex="1" parent="1">
          <mxGeometry x="530" y="-169.75" width="80" height="10" as="geometry" />
        </mxCell>
        <mxCell id="fjrM6RVfVKzAaWCYe4X4-99" value="&lt;font style=&quot;font-size: 7px;&quot;&gt;Please fill out the form below to add an entry&lt;/font&gt;" style="rounded=1;whiteSpace=wrap;html=1;strokeColor=#FFFFFF;" vertex="1" parent="1">
          <mxGeometry x="630" y="-241.75" width="150" height="10" as="geometry" />
        </mxCell>
        <mxCell id="fjrM6RVfVKzAaWCYe4X4-100" value="&lt;font style=&quot;font-size: 6px;&quot;&gt;Mane colour&lt;/font&gt;" style="rounded=1;whiteSpace=wrap;html=1;" vertex="1" parent="1">
          <mxGeometry x="530" y="-181.75" width="80" height="10" as="geometry" />
        </mxCell>
        <mxCell id="fjrM6RVfVKzAaWCYe4X4-107" value="" style="endArrow=none;html=1;rounded=0;entryX=1;entryY=0;entryDx=0;entryDy=0;" edge="1" parent="1" target="fjrM6RVfVKzAaWCYe4X4-86">
          <mxGeometry width="50" height="50" relative="1" as="geometry">
            <mxPoint x="520" y="-246.75" as="sourcePoint" />
            <mxPoint x="570" y="-296.75" as="targetPoint" />
          </mxGeometry>
        </mxCell>
        <mxCell id="fjrM6RVfVKzAaWCYe4X4-108" value="" style="endArrow=none;html=1;rounded=0;entryX=1;entryY=1;entryDx=0;entryDy=0;exitX=0;exitY=0;exitDx=0;exitDy=0;" edge="1" parent="1" source="fjrM6RVfVKzAaWCYe4X4-86" target="fjrM6RVfVKzAaWCYe4X4-86">
          <mxGeometry width="50" height="50" relative="1" as="geometry">
            <mxPoint x="530" y="-236.75" as="sourcePoint" />
            <mxPoint x="630" y="-296.75" as="targetPoint" />
          </mxGeometry>
        </mxCell>
        <mxCell id="fjrM6RVfVKzAaWCYe4X4-118" value="&lt;font style=&quot;font-size: 8px;&quot;&gt;Catergory&lt;/font&gt;" style="html=1;shadow=0;dashed=0;shape=mxgraph.bootstrap.rrect;rSize=5;strokeColor=none;strokeWidth=1;fillColor=#6C767D;fontColor=#ffffff;whiteSpace=wrap;align=right;verticalAlign=middle;fontStyle=0;fontSize=14;spacingRight=20;" vertex="1" parent="1">
          <mxGeometry x="520" y="98.5" width="70" height="11.5" as="geometry" />
        </mxCell>
        <mxCell id="fjrM6RVfVKzAaWCYe4X4-119" value="" style="shape=triangle;direction=south;fillColor=#ffffff;strokeColor=none;perimeter=none;" vertex="1" parent="fjrM6RVfVKzAaWCYe4X4-118">
          <mxGeometry x="1" y="0.5" width="10" height="5" relative="1" as="geometry">
            <mxPoint x="-17" y="-2.5" as="offset" />
          </mxGeometry>
        </mxCell>
        <mxCell id="fjrM6RVfVKzAaWCYe4X4-122" value="&lt;font style=&quot;font-size: 8px;&quot;&gt;Residence&lt;/font&gt;" style="html=1;shadow=0;dashed=0;shape=mxgraph.bootstrap.rrect;rSize=5;strokeColor=none;strokeWidth=1;fillColor=#6C767D;fontColor=#ffffff;whiteSpace=wrap;align=right;verticalAlign=middle;fontStyle=0;fontSize=14;spacingRight=20;" vertex="1" parent="1">
          <mxGeometry x="520" y="112" width="70" height="11.5" as="geometry" />
        </mxCell>
        <mxCell id="fjrM6RVfVKzAaWCYe4X4-123" value="" style="shape=triangle;direction=south;fillColor=#ffffff;strokeColor=none;perimeter=none;" vertex="1" parent="fjrM6RVfVKzAaWCYe4X4-122">
          <mxGeometry x="1" y="0.5" width="10" height="5" relative="1" as="geometry">
            <mxPoint x="-17" y="-2.5" as="offset" />
          </mxGeometry>
        </mxCell>
        <mxCell id="fjrM6RVfVKzAaWCYe4X4-124" value="&lt;font style=&quot;font-size: 8px;&quot;&gt;Mane colour&lt;/font&gt;" style="html=1;shadow=0;dashed=0;shape=mxgraph.bootstrap.rrect;rSize=5;strokeColor=none;strokeWidth=1;fillColor=#6C767D;fontColor=#ffffff;whiteSpace=wrap;align=right;verticalAlign=middle;fontStyle=0;fontSize=14;spacingRight=20;" vertex="1" parent="1">
          <mxGeometry x="520" y="125" width="70" height="11.5" as="geometry" />
        </mxCell>
        <mxCell id="fjrM6RVfVKzAaWCYe4X4-125" value="" style="shape=triangle;direction=south;fillColor=#ffffff;strokeColor=none;perimeter=none;" vertex="1" parent="fjrM6RVfVKzAaWCYe4X4-124">
          <mxGeometry x="1" y="0.5" width="10" height="5" relative="1" as="geometry">
            <mxPoint x="-17" y="-2.5" as="offset" />
          </mxGeometry>
        </mxCell>
        <mxCell id="fjrM6RVfVKzAaWCYe4X4-126" value="&lt;font style=&quot;font-size: 8px;&quot;&gt;Body colour&lt;/font&gt;" style="html=1;shadow=0;dashed=0;shape=mxgraph.bootstrap.rrect;rSize=5;strokeColor=none;strokeWidth=1;fillColor=#6C767D;fontColor=#ffffff;whiteSpace=wrap;align=right;verticalAlign=middle;fontStyle=0;fontSize=14;spacingRight=20;" vertex="1" parent="1">
          <mxGeometry x="520" y="138.5" width="70" height="11.5" as="geometry" />
        </mxCell>
        <mxCell id="fjrM6RVfVKzAaWCYe4X4-127" value="" style="shape=triangle;direction=south;fillColor=#ffffff;strokeColor=none;perimeter=none;" vertex="1" parent="fjrM6RVfVKzAaWCYe4X4-126">
          <mxGeometry x="1" y="0.5" width="10" height="5" relative="1" as="geometry">
            <mxPoint x="-17" y="-2.5" as="offset" />
          </mxGeometry>
        </mxCell>
        <mxCell id="fjrM6RVfVKzAaWCYe4X4-129" value="" style="html=1;verticalLabelPosition=bottom;align=center;labelBackgroundColor=#ffffff;verticalAlign=top;strokeWidth=2;strokeColor=#0080F0;shadow=0;dashed=0;shape=mxgraph.ios7.icons.looking_glass;" vertex="1" parent="1">
          <mxGeometry x="590" y="87.5" width="10" height="10" as="geometry" />
        </mxCell>
        <mxCell id="fjrM6RVfVKzAaWCYe4X4-130" value="" style="html=1;verticalLabelPosition=bottom;align=center;labelBackgroundColor=#ffffff;verticalAlign=top;strokeWidth=2;strokeColor=#0080F0;shadow=0;dashed=0;shape=mxgraph.ios7.icons.looking_glass;" vertex="1" parent="1">
          <mxGeometry x="590" y="100" width="10" height="10" as="geometry" />
        </mxCell>
        <mxCell id="fjrM6RVfVKzAaWCYe4X4-131" value="" style="html=1;verticalLabelPosition=bottom;align=center;labelBackgroundColor=#ffffff;verticalAlign=top;strokeWidth=2;strokeColor=#0080F0;shadow=0;dashed=0;shape=mxgraph.ios7.icons.looking_glass;" vertex="1" parent="1">
          <mxGeometry x="590" y="112.75" width="10" height="10" as="geometry" />
        </mxCell>
        <mxCell id="fjrM6RVfVKzAaWCYe4X4-132" value="" style="html=1;verticalLabelPosition=bottom;align=center;labelBackgroundColor=#ffffff;verticalAlign=top;strokeWidth=2;strokeColor=#0080F0;shadow=0;dashed=0;shape=mxgraph.ios7.icons.looking_glass;" vertex="1" parent="1">
          <mxGeometry x="590" y="125.75" width="10" height="10" as="geometry" />
        </mxCell>
        <mxCell id="fjrM6RVfVKzAaWCYe4X4-133" value="" style="html=1;verticalLabelPosition=bottom;align=center;labelBackgroundColor=#ffffff;verticalAlign=top;strokeWidth=2;strokeColor=#0080F0;shadow=0;dashed=0;shape=mxgraph.ios7.icons.looking_glass;" vertex="1" parent="1">
          <mxGeometry x="590" y="138.5" width="10" height="10" as="geometry" />
        </mxCell>
        <mxCell id="fjrM6RVfVKzAaWCYe4X4-134" value="&lt;font style=&quot;font-size: 6px;&quot;&gt;Mane colour&lt;/font&gt;" style="rounded=1;whiteSpace=wrap;html=1;" vertex="1" parent="1">
          <mxGeometry x="180" y="112.75" width="80" height="10" as="geometry" />
        </mxCell>
        <mxCell id="fjrM6RVfVKzAaWCYe4X4-135" value="&lt;span style=&quot;font-size: 6px;&quot;&gt;Fluttershy&lt;/span&gt;" style="rounded=1;whiteSpace=wrap;html=1;" vertex="1" parent="1">
          <mxGeometry x="180" y="88.75" width="80" height="10" as="geometry" />
        </mxCell>
        <mxCell id="fjrM6RVfVKzAaWCYe4X4-136" value="&lt;font style=&quot;font-size: 6px;&quot;&gt;Catergory&lt;/font&gt;" style="rounded=1;whiteSpace=wrap;html=1;" vertex="1" parent="1">
          <mxGeometry x="180" y="100.75" width="80" height="10" as="geometry" />
        </mxCell>
        <mxCell id="fjrM6RVfVKzAaWCYe4X4-137" value="&lt;font style=&quot;font-size: 6px;&quot;&gt;add entry&lt;/font&gt;" style="rounded=1;whiteSpace=wrap;html=1;" vertex="1" parent="1">
          <mxGeometry x="180" y="175.75" width="80" height="10" as="geometry" />
        </mxCell>
        <mxCell id="fjrM6RVfVKzAaWCYe4X4-138" value="&lt;span style=&quot;font-size: 6px;&quot;&gt;Residence&lt;/span&gt;" style="rounded=1;whiteSpace=wrap;html=1;" vertex="1" parent="1">
          <mxGeometry x="180" y="112.75" width="80" height="10" as="geometry" />
        </mxCell>
        <mxCell id="fjrM6RVfVKzAaWCYe4X4-139" value="&lt;font style=&quot;font-size: 6px;&quot;&gt;Main characters&lt;/font&gt;" style="rounded=1;whiteSpace=wrap;html=1;" vertex="1" parent="1">
          <mxGeometry x="180" y="150.75" width="80" height="10" as="geometry" />
        </mxCell>
        <mxCell id="fjrM6RVfVKzAaWCYe4X4-140" value="&lt;span style=&quot;font-size: 6px;&quot;&gt;Non pony&lt;/span&gt;" style="rounded=1;whiteSpace=wrap;html=1;" vertex="1" parent="1">
          <mxGeometry x="180" y="163.75" width="80" height="10" as="geometry" />
        </mxCell>
        <mxCell id="fjrM6RVfVKzAaWCYe4X4-141" value="&lt;font style=&quot;font-size: 6px;&quot;&gt;Body colour&lt;/font&gt;" style="rounded=1;whiteSpace=wrap;html=1;" vertex="1" parent="1">
          <mxGeometry x="180" y="137.75" width="80" height="10" as="geometry" />
        </mxCell>
        <mxCell id="fjrM6RVfVKzAaWCYe4X4-142" value="&lt;font style=&quot;font-size: 6px;&quot;&gt;Mane colour&lt;/font&gt;" style="rounded=1;whiteSpace=wrap;html=1;" vertex="1" parent="1">
          <mxGeometry x="180" y="125.75" width="80" height="10" as="geometry" />
        </mxCell>
        <mxCell id="fjrM6RVfVKzAaWCYe4X4-143" value="&lt;font style=&quot;font-size: 8px;&quot;&gt;Catergory&lt;/font&gt;" style="html=1;shadow=0;dashed=0;shape=mxgraph.bootstrap.rrect;rSize=5;strokeColor=none;strokeWidth=1;fillColor=#6C767D;fontColor=#ffffff;whiteSpace=wrap;align=right;verticalAlign=middle;fontStyle=0;fontSize=14;spacingRight=20;" vertex="1" parent="1">
          <mxGeometry x="180" y="99.25" width="70" height="11.5" as="geometry" />
        </mxCell>
        <mxCell id="fjrM6RVfVKzAaWCYe4X4-144" value="" style="shape=triangle;direction=south;fillColor=#ffffff;strokeColor=none;perimeter=none;" vertex="1" parent="fjrM6RVfVKzAaWCYe4X4-143">
          <mxGeometry x="1" y="0.5" width="10" height="5" relative="1" as="geometry">
            <mxPoint x="-17" y="-2.5" as="offset" />
          </mxGeometry>
        </mxCell>
        <mxCell id="fjrM6RVfVKzAaWCYe4X4-145" value="&lt;font style=&quot;font-size: 8px;&quot;&gt;Residence&lt;/font&gt;" style="html=1;shadow=0;dashed=0;shape=mxgraph.bootstrap.rrect;rSize=5;strokeColor=none;strokeWidth=1;fillColor=#6C767D;fontColor=#ffffff;whiteSpace=wrap;align=right;verticalAlign=middle;fontStyle=0;fontSize=14;spacingRight=20;" vertex="1" parent="1">
          <mxGeometry x="180" y="112.75" width="70" height="11.5" as="geometry" />
        </mxCell>
        <mxCell id="fjrM6RVfVKzAaWCYe4X4-146" value="" style="shape=triangle;direction=south;fillColor=#ffffff;strokeColor=none;perimeter=none;" vertex="1" parent="fjrM6RVfVKzAaWCYe4X4-145">
          <mxGeometry x="1" y="0.5" width="10" height="5" relative="1" as="geometry">
            <mxPoint x="-17" y="-2.5" as="offset" />
          </mxGeometry>
        </mxCell>
        <mxCell id="fjrM6RVfVKzAaWCYe4X4-147" value="&lt;font style=&quot;font-size: 8px;&quot;&gt;Mane colour&lt;/font&gt;" style="html=1;shadow=0;dashed=0;shape=mxgraph.bootstrap.rrect;rSize=5;strokeColor=none;strokeWidth=1;fillColor=#6C767D;fontColor=#ffffff;whiteSpace=wrap;align=right;verticalAlign=middle;fontStyle=0;fontSize=14;spacingRight=20;" vertex="1" parent="1">
          <mxGeometry x="180" y="125.75" width="70" height="11.5" as="geometry" />
        </mxCell>
        <mxCell id="fjrM6RVfVKzAaWCYe4X4-148" value="" style="shape=triangle;direction=south;fillColor=#ffffff;strokeColor=none;perimeter=none;" vertex="1" parent="fjrM6RVfVKzAaWCYe4X4-147">
          <mxGeometry x="1" y="0.5" width="10" height="5" relative="1" as="geometry">
            <mxPoint x="-17" y="-2.5" as="offset" />
          </mxGeometry>
        </mxCell>
        <mxCell id="fjrM6RVfVKzAaWCYe4X4-149" value="&lt;font style=&quot;font-size: 8px;&quot;&gt;Body colour&lt;/font&gt;" style="html=1;shadow=0;dashed=0;shape=mxgraph.bootstrap.rrect;rSize=5;strokeColor=none;strokeWidth=1;fillColor=#6C767D;fontColor=#ffffff;whiteSpace=wrap;align=right;verticalAlign=middle;fontStyle=0;fontSize=14;spacingRight=20;" vertex="1" parent="1">
          <mxGeometry x="180" y="139.25" width="70" height="11.5" as="geometry" />
        </mxCell>
        <mxCell id="fjrM6RVfVKzAaWCYe4X4-150" value="" style="shape=triangle;direction=south;fillColor=#ffffff;strokeColor=none;perimeter=none;" vertex="1" parent="fjrM6RVfVKzAaWCYe4X4-149">
          <mxGeometry x="1" y="0.5" width="10" height="5" relative="1" as="geometry">
            <mxPoint x="-17" y="-2.5" as="offset" />
          </mxGeometry>
        </mxCell>
        <mxCell id="fjrM6RVfVKzAaWCYe4X4-151" value="" style="html=1;verticalLabelPosition=bottom;align=center;labelBackgroundColor=#ffffff;verticalAlign=top;strokeWidth=2;strokeColor=#0080F0;shadow=0;dashed=0;shape=mxgraph.ios7.icons.looking_glass;" vertex="1" parent="1">
          <mxGeometry x="250" y="88.25" width="10" height="10" as="geometry" />
        </mxCell>
        <mxCell id="fjrM6RVfVKzAaWCYe4X4-152" value="" style="html=1;verticalLabelPosition=bottom;align=center;labelBackgroundColor=#ffffff;verticalAlign=top;strokeWidth=2;strokeColor=#0080F0;shadow=0;dashed=0;shape=mxgraph.ios7.icons.looking_glass;" vertex="1" parent="1">
          <mxGeometry x="250" y="100.75" width="10" height="10" as="geometry" />
        </mxCell>
        <mxCell id="fjrM6RVfVKzAaWCYe4X4-153" value="" style="html=1;verticalLabelPosition=bottom;align=center;labelBackgroundColor=#ffffff;verticalAlign=top;strokeWidth=2;strokeColor=#0080F0;shadow=0;dashed=0;shape=mxgraph.ios7.icons.looking_glass;" vertex="1" parent="1">
          <mxGeometry x="250" y="113.5" width="10" height="10" as="geometry" />
        </mxCell>
        <mxCell id="fjrM6RVfVKzAaWCYe4X4-154" value="" style="html=1;verticalLabelPosition=bottom;align=center;labelBackgroundColor=#ffffff;verticalAlign=top;strokeWidth=2;strokeColor=#0080F0;shadow=0;dashed=0;shape=mxgraph.ios7.icons.looking_glass;" vertex="1" parent="1">
          <mxGeometry x="250" y="126.5" width="10" height="10" as="geometry" />
        </mxCell>
        <mxCell id="fjrM6RVfVKzAaWCYe4X4-155" value="" style="html=1;verticalLabelPosition=bottom;align=center;labelBackgroundColor=#ffffff;verticalAlign=top;strokeWidth=2;strokeColor=#0080F0;shadow=0;dashed=0;shape=mxgraph.ios7.icons.looking_glass;" vertex="1" parent="1">
          <mxGeometry x="250" y="139.25" width="10" height="10" as="geometry" />
        </mxCell>
        <mxCell id="fjrM6RVfVKzAaWCYe4X4-156" value="&lt;font style=&quot;font-size: 6px;&quot;&gt;Mane colour&lt;/font&gt;" style="rounded=1;whiteSpace=wrap;html=1;" vertex="1" parent="1">
          <mxGeometry x="530" y="-194.25" width="80" height="10" as="geometry" />
        </mxCell>
        <mxCell id="fjrM6RVfVKzAaWCYe4X4-157" value="&lt;span style=&quot;font-size: 6px;&quot;&gt;Quick search&lt;/span&gt;" style="rounded=1;whiteSpace=wrap;html=1;" vertex="1" parent="1">
          <mxGeometry x="530" y="-218.25" width="80" height="10" as="geometry" />
        </mxCell>
        <mxCell id="fjrM6RVfVKzAaWCYe4X4-158" value="&lt;font style=&quot;font-size: 6px;&quot;&gt;Catergory&lt;/font&gt;" style="rounded=1;whiteSpace=wrap;html=1;" vertex="1" parent="1">
          <mxGeometry x="530" y="-206.25" width="80" height="10" as="geometry" />
        </mxCell>
        <mxCell id="fjrM6RVfVKzAaWCYe4X4-159" value="&lt;font style=&quot;font-size: 6px;&quot;&gt;add entry&lt;/font&gt;" style="rounded=1;whiteSpace=wrap;html=1;" vertex="1" parent="1">
          <mxGeometry x="530" y="-131.25" width="80" height="10" as="geometry" />
        </mxCell>
        <mxCell id="fjrM6RVfVKzAaWCYe4X4-160" value="&lt;span style=&quot;font-size: 6px;&quot;&gt;Residence&lt;/span&gt;" style="rounded=1;whiteSpace=wrap;html=1;" vertex="1" parent="1">
          <mxGeometry x="530" y="-194.25" width="80" height="10" as="geometry" />
        </mxCell>
        <mxCell id="fjrM6RVfVKzAaWCYe4X4-161" value="&lt;font style=&quot;font-size: 6px;&quot;&gt;Main characters&lt;/font&gt;" style="rounded=1;whiteSpace=wrap;html=1;" vertex="1" parent="1">
          <mxGeometry x="530" y="-156.25" width="80" height="10" as="geometry" />
        </mxCell>
        <mxCell id="fjrM6RVfVKzAaWCYe4X4-162" value="&lt;span style=&quot;font-size: 6px;&quot;&gt;Non pony&lt;/span&gt;" style="rounded=1;whiteSpace=wrap;html=1;" vertex="1" parent="1">
          <mxGeometry x="530" y="-143.25" width="80" height="10" as="geometry" />
        </mxCell>
        <mxCell id="fjrM6RVfVKzAaWCYe4X4-163" value="&lt;font style=&quot;font-size: 6px;&quot;&gt;Body colour&lt;/font&gt;" style="rounded=1;whiteSpace=wrap;html=1;" vertex="1" parent="1">
          <mxGeometry x="530" y="-169.25" width="80" height="10" as="geometry" />
        </mxCell>
        <mxCell id="fjrM6RVfVKzAaWCYe4X4-164" value="&lt;font style=&quot;font-size: 6px;&quot;&gt;Mane colour&lt;/font&gt;" style="rounded=1;whiteSpace=wrap;html=1;" vertex="1" parent="1">
          <mxGeometry x="530" y="-181.25" width="80" height="10" as="geometry" />
        </mxCell>
        <mxCell id="fjrM6RVfVKzAaWCYe4X4-165" value="&lt;font style=&quot;font-size: 8px;&quot;&gt;Catergory&lt;/font&gt;" style="html=1;shadow=0;dashed=0;shape=mxgraph.bootstrap.rrect;rSize=5;strokeColor=none;strokeWidth=1;fillColor=#6C767D;fontColor=#ffffff;whiteSpace=wrap;align=right;verticalAlign=middle;fontStyle=0;fontSize=14;spacingRight=20;" vertex="1" parent="1">
          <mxGeometry x="530" y="-207.75" width="70" height="11.5" as="geometry" />
        </mxCell>
        <mxCell id="fjrM6RVfVKzAaWCYe4X4-166" value="" style="shape=triangle;direction=south;fillColor=#ffffff;strokeColor=none;perimeter=none;" vertex="1" parent="fjrM6RVfVKzAaWCYe4X4-165">
          <mxGeometry x="1" y="0.5" width="10" height="5" relative="1" as="geometry">
            <mxPoint x="-17" y="-2.5" as="offset" />
          </mxGeometry>
        </mxCell>
        <mxCell id="fjrM6RVfVKzAaWCYe4X4-167" value="&lt;font style=&quot;font-size: 8px;&quot;&gt;Residence&lt;/font&gt;" style="html=1;shadow=0;dashed=0;shape=mxgraph.bootstrap.rrect;rSize=5;strokeColor=none;strokeWidth=1;fillColor=#6C767D;fontColor=#ffffff;whiteSpace=wrap;align=right;verticalAlign=middle;fontStyle=0;fontSize=14;spacingRight=20;" vertex="1" parent="1">
          <mxGeometry x="530" y="-194.25" width="70" height="11.5" as="geometry" />
        </mxCell>
        <mxCell id="fjrM6RVfVKzAaWCYe4X4-168" value="" style="shape=triangle;direction=south;fillColor=#ffffff;strokeColor=none;perimeter=none;" vertex="1" parent="fjrM6RVfVKzAaWCYe4X4-167">
          <mxGeometry x="1" y="0.5" width="10" height="5" relative="1" as="geometry">
            <mxPoint x="-17" y="-2.5" as="offset" />
          </mxGeometry>
        </mxCell>
        <mxCell id="fjrM6RVfVKzAaWCYe4X4-169" value="&lt;font style=&quot;font-size: 8px;&quot;&gt;Mane colour&lt;/font&gt;" style="html=1;shadow=0;dashed=0;shape=mxgraph.bootstrap.rrect;rSize=5;strokeColor=none;strokeWidth=1;fillColor=#6C767D;fontColor=#ffffff;whiteSpace=wrap;align=right;verticalAlign=middle;fontStyle=0;fontSize=14;spacingRight=20;" vertex="1" parent="1">
          <mxGeometry x="530" y="-181.25" width="70" height="11.5" as="geometry" />
        </mxCell>
        <mxCell id="fjrM6RVfVKzAaWCYe4X4-170" value="" style="shape=triangle;direction=south;fillColor=#ffffff;strokeColor=none;perimeter=none;" vertex="1" parent="fjrM6RVfVKzAaWCYe4X4-169">
          <mxGeometry x="1" y="0.5" width="10" height="5" relative="1" as="geometry">
            <mxPoint x="-17" y="-2.5" as="offset" />
          </mxGeometry>
        </mxCell>
        <mxCell id="fjrM6RVfVKzAaWCYe4X4-171" value="&lt;font style=&quot;font-size: 8px;&quot;&gt;Body colour&lt;/font&gt;" style="html=1;shadow=0;dashed=0;shape=mxgraph.bootstrap.rrect;rSize=5;strokeColor=none;strokeWidth=1;fillColor=#6C767D;fontColor=#ffffff;whiteSpace=wrap;align=right;verticalAlign=middle;fontStyle=0;fontSize=14;spacingRight=20;" vertex="1" parent="1">
          <mxGeometry x="530" y="-167.75" width="70" height="11.5" as="geometry" />
        </mxCell>
        <mxCell id="fjrM6RVfVKzAaWCYe4X4-172" value="" style="shape=triangle;direction=south;fillColor=#ffffff;strokeColor=none;perimeter=none;" vertex="1" parent="fjrM6RVfVKzAaWCYe4X4-171">
          <mxGeometry x="1" y="0.5" width="10" height="5" relative="1" as="geometry">
            <mxPoint x="-17" y="-2.5" as="offset" />
          </mxGeometry>
        </mxCell>
        <mxCell id="fjrM6RVfVKzAaWCYe4X4-173" value="" style="html=1;verticalLabelPosition=bottom;align=center;labelBackgroundColor=#ffffff;verticalAlign=top;strokeWidth=2;strokeColor=#0080F0;shadow=0;dashed=0;shape=mxgraph.ios7.icons.looking_glass;" vertex="1" parent="1">
          <mxGeometry x="600" y="-218.75" width="10" height="10" as="geometry" />
        </mxCell>
        <mxCell id="fjrM6RVfVKzAaWCYe4X4-174" value="" style="html=1;verticalLabelPosition=bottom;align=center;labelBackgroundColor=#ffffff;verticalAlign=top;strokeWidth=2;strokeColor=#0080F0;shadow=0;dashed=0;shape=mxgraph.ios7.icons.looking_glass;" vertex="1" parent="1">
          <mxGeometry x="600" y="-206.25" width="10" height="10" as="geometry" />
        </mxCell>
        <mxCell id="fjrM6RVfVKzAaWCYe4X4-175" value="" style="html=1;verticalLabelPosition=bottom;align=center;labelBackgroundColor=#ffffff;verticalAlign=top;strokeWidth=2;strokeColor=#0080F0;shadow=0;dashed=0;shape=mxgraph.ios7.icons.looking_glass;" vertex="1" parent="1">
          <mxGeometry x="600" y="-193.5" width="10" height="10" as="geometry" />
        </mxCell>
        <mxCell id="fjrM6RVfVKzAaWCYe4X4-176" value="" style="html=1;verticalLabelPosition=bottom;align=center;labelBackgroundColor=#ffffff;verticalAlign=top;strokeWidth=2;strokeColor=#0080F0;shadow=0;dashed=0;shape=mxgraph.ios7.icons.looking_glass;" vertex="1" parent="1">
          <mxGeometry x="600" y="-180.5" width="10" height="10" as="geometry" />
        </mxCell>
        <mxCell id="fjrM6RVfVKzAaWCYe4X4-177" value="" style="html=1;verticalLabelPosition=bottom;align=center;labelBackgroundColor=#ffffff;verticalAlign=top;strokeWidth=2;strokeColor=#0080F0;shadow=0;dashed=0;shape=mxgraph.ios7.icons.looking_glass;" vertex="1" parent="1">
          <mxGeometry x="600" y="-167.75" width="10" height="10" as="geometry" />
        </mxCell>
        <mxCell id="fjrM6RVfVKzAaWCYe4X4-178" value="&lt;font style=&quot;font-size: 6px;&quot;&gt;Mane colour&lt;/font&gt;" style="rounded=1;whiteSpace=wrap;html=1;" vertex="1" parent="1">
          <mxGeometry x="180" y="-107.5" width="80" height="10" as="geometry" />
        </mxCell>
        <mxCell id="fjrM6RVfVKzAaWCYe4X4-179" value="&lt;span style=&quot;font-size: 6px;&quot;&gt;Quick search&lt;/span&gt;" style="rounded=1;whiteSpace=wrap;html=1;" vertex="1" parent="1">
          <mxGeometry x="180" y="-131.5" width="80" height="10" as="geometry" />
        </mxCell>
        <mxCell id="fjrM6RVfVKzAaWCYe4X4-180" value="&lt;font style=&quot;font-size: 6px;&quot;&gt;Catergory&lt;/font&gt;" style="rounded=1;whiteSpace=wrap;html=1;" vertex="1" parent="1">
          <mxGeometry x="180" y="-119.5" width="80" height="10" as="geometry" />
        </mxCell>
        <mxCell id="fjrM6RVfVKzAaWCYe4X4-181" value="&lt;font style=&quot;font-size: 6px;&quot;&gt;add entry&lt;/font&gt;" style="rounded=1;whiteSpace=wrap;html=1;" vertex="1" parent="1">
          <mxGeometry x="180" y="-44.5" width="80" height="10" as="geometry" />
        </mxCell>
        <mxCell id="fjrM6RVfVKzAaWCYe4X4-182" value="&lt;span style=&quot;font-size: 6px;&quot;&gt;Residence&lt;/span&gt;" style="rounded=1;whiteSpace=wrap;html=1;" vertex="1" parent="1">
          <mxGeometry x="180" y="-107.5" width="80" height="10" as="geometry" />
        </mxCell>
        <mxCell id="fjrM6RVfVKzAaWCYe4X4-183" value="&lt;font style=&quot;font-size: 6px;&quot;&gt;Main characters&lt;/font&gt;" style="rounded=1;whiteSpace=wrap;html=1;" vertex="1" parent="1">
          <mxGeometry x="180" y="-69.5" width="80" height="10" as="geometry" />
        </mxCell>
        <mxCell id="fjrM6RVfVKzAaWCYe4X4-184" value="&lt;span style=&quot;font-size: 6px;&quot;&gt;Non pony&lt;/span&gt;" style="rounded=1;whiteSpace=wrap;html=1;" vertex="1" parent="1">
          <mxGeometry x="180" y="-56.5" width="80" height="10" as="geometry" />
        </mxCell>
        <mxCell id="fjrM6RVfVKzAaWCYe4X4-185" value="&lt;font style=&quot;font-size: 6px;&quot;&gt;Body colour&lt;/font&gt;" style="rounded=1;whiteSpace=wrap;html=1;" vertex="1" parent="1">
          <mxGeometry x="180" y="-82.5" width="80" height="10" as="geometry" />
        </mxCell>
        <mxCell id="fjrM6RVfVKzAaWCYe4X4-186" value="&lt;font style=&quot;font-size: 6px;&quot;&gt;Mane colour&lt;/font&gt;" style="rounded=1;whiteSpace=wrap;html=1;" vertex="1" parent="1">
          <mxGeometry x="180" y="-94.5" width="80" height="10" as="geometry" />
        </mxCell>
        <mxCell id="fjrM6RVfVKzAaWCYe4X4-187" value="&lt;font style=&quot;font-size: 8px;&quot;&gt;Catergory&lt;/font&gt;" style="html=1;shadow=0;dashed=0;shape=mxgraph.bootstrap.rrect;rSize=5;strokeColor=none;strokeWidth=1;fillColor=#6C767D;fontColor=#ffffff;whiteSpace=wrap;align=right;verticalAlign=middle;fontStyle=0;fontSize=14;spacingRight=20;" vertex="1" parent="1">
          <mxGeometry x="180" y="-121" width="70" height="11.5" as="geometry" />
        </mxCell>
        <mxCell id="fjrM6RVfVKzAaWCYe4X4-188" value="" style="shape=triangle;direction=south;fillColor=#ffffff;strokeColor=none;perimeter=none;" vertex="1" parent="fjrM6RVfVKzAaWCYe4X4-187">
          <mxGeometry x="1" y="0.5" width="10" height="5" relative="1" as="geometry">
            <mxPoint x="-17" y="-2.5" as="offset" />
          </mxGeometry>
        </mxCell>
        <mxCell id="fjrM6RVfVKzAaWCYe4X4-189" value="&lt;font style=&quot;font-size: 8px;&quot;&gt;Residence&lt;/font&gt;" style="html=1;shadow=0;dashed=0;shape=mxgraph.bootstrap.rrect;rSize=5;strokeColor=none;strokeWidth=1;fillColor=#6C767D;fontColor=#ffffff;whiteSpace=wrap;align=right;verticalAlign=middle;fontStyle=0;fontSize=14;spacingRight=20;" vertex="1" parent="1">
          <mxGeometry x="180" y="-107.5" width="70" height="11.5" as="geometry" />
        </mxCell>
        <mxCell id="fjrM6RVfVKzAaWCYe4X4-190" value="" style="shape=triangle;direction=south;fillColor=#ffffff;strokeColor=none;perimeter=none;" vertex="1" parent="fjrM6RVfVKzAaWCYe4X4-189">
          <mxGeometry x="1" y="0.5" width="10" height="5" relative="1" as="geometry">
            <mxPoint x="-17" y="-2.5" as="offset" />
          </mxGeometry>
        </mxCell>
        <mxCell id="fjrM6RVfVKzAaWCYe4X4-191" value="&lt;font style=&quot;font-size: 8px;&quot;&gt;Mane colour&lt;/font&gt;" style="html=1;shadow=0;dashed=0;shape=mxgraph.bootstrap.rrect;rSize=5;strokeColor=none;strokeWidth=1;fillColor=#6C767D;fontColor=#ffffff;whiteSpace=wrap;align=right;verticalAlign=middle;fontStyle=0;fontSize=14;spacingRight=20;" vertex="1" parent="1">
          <mxGeometry x="180" y="-94.5" width="70" height="11.5" as="geometry" />
        </mxCell>
        <mxCell id="fjrM6RVfVKzAaWCYe4X4-192" value="" style="shape=triangle;direction=south;fillColor=#ffffff;strokeColor=none;perimeter=none;" vertex="1" parent="fjrM6RVfVKzAaWCYe4X4-191">
          <mxGeometry x="1" y="0.5" width="10" height="5" relative="1" as="geometry">
            <mxPoint x="-17" y="-2.5" as="offset" />
          </mxGeometry>
        </mxCell>
        <mxCell id="fjrM6RVfVKzAaWCYe4X4-193" value="&lt;font style=&quot;font-size: 8px;&quot;&gt;Body colour&lt;/font&gt;" style="html=1;shadow=0;dashed=0;shape=mxgraph.bootstrap.rrect;rSize=5;strokeColor=none;strokeWidth=1;fillColor=#6C767D;fontColor=#ffffff;whiteSpace=wrap;align=right;verticalAlign=middle;fontStyle=0;fontSize=14;spacingRight=20;" vertex="1" parent="1">
          <mxGeometry x="180" y="-81" width="70" height="11.5" as="geometry" />
        </mxCell>
        <mxCell id="fjrM6RVfVKzAaWCYe4X4-194" value="" style="shape=triangle;direction=south;fillColor=#ffffff;strokeColor=none;perimeter=none;" vertex="1" parent="fjrM6RVfVKzAaWCYe4X4-193">
          <mxGeometry x="1" y="0.5" width="10" height="5" relative="1" as="geometry">
            <mxPoint x="-17" y="-2.5" as="offset" />
          </mxGeometry>
        </mxCell>
        <mxCell id="fjrM6RVfVKzAaWCYe4X4-195" value="" style="html=1;verticalLabelPosition=bottom;align=center;labelBackgroundColor=#ffffff;verticalAlign=top;strokeWidth=2;strokeColor=#0080F0;shadow=0;dashed=0;shape=mxgraph.ios7.icons.looking_glass;" vertex="1" parent="1">
          <mxGeometry x="250" y="-132" width="10" height="10" as="geometry" />
        </mxCell>
        <mxCell id="fjrM6RVfVKzAaWCYe4X4-196" value="" style="html=1;verticalLabelPosition=bottom;align=center;labelBackgroundColor=#ffffff;verticalAlign=top;strokeWidth=2;strokeColor=#0080F0;shadow=0;dashed=0;shape=mxgraph.ios7.icons.looking_glass;" vertex="1" parent="1">
          <mxGeometry x="250" y="-119.5" width="10" height="10" as="geometry" />
        </mxCell>
        <mxCell id="fjrM6RVfVKzAaWCYe4X4-197" value="" style="html=1;verticalLabelPosition=bottom;align=center;labelBackgroundColor=#ffffff;verticalAlign=top;strokeWidth=2;strokeColor=#0080F0;shadow=0;dashed=0;shape=mxgraph.ios7.icons.looking_glass;" vertex="1" parent="1">
          <mxGeometry x="250" y="-106.75" width="10" height="10" as="geometry" />
        </mxCell>
        <mxCell id="fjrM6RVfVKzAaWCYe4X4-198" value="" style="html=1;verticalLabelPosition=bottom;align=center;labelBackgroundColor=#ffffff;verticalAlign=top;strokeWidth=2;strokeColor=#0080F0;shadow=0;dashed=0;shape=mxgraph.ios7.icons.looking_glass;" vertex="1" parent="1">
          <mxGeometry x="250" y="-93.75" width="10" height="10" as="geometry" />
        </mxCell>
        <mxCell id="fjrM6RVfVKzAaWCYe4X4-199" value="" style="html=1;verticalLabelPosition=bottom;align=center;labelBackgroundColor=#ffffff;verticalAlign=top;strokeWidth=2;strokeColor=#0080F0;shadow=0;dashed=0;shape=mxgraph.ios7.icons.looking_glass;" vertex="1" parent="1">
          <mxGeometry x="250" y="-81" width="10" height="10" as="geometry" />
        </mxCell>
        <mxCell id="fjrM6RVfVKzAaWCYe4X4-200" value="&lt;font style=&quot;font-size: 15px;&quot;&gt;My Little Pony Characters&lt;/font&gt;" style="rounded=1;whiteSpace=wrap;html=1;strokeColor=#ffffff;" vertex="1" parent="1">
          <mxGeometry x="630" y="-306.75" width="180" height="60" as="geometry" />
        </mxCell>
        <mxCell id="fjrM6RVfVKzAaWCYe4X4-201" value="&lt;font style=&quot;font-size: 15px;&quot;&gt;My Little Pony Characters&lt;/font&gt;" style="rounded=1;whiteSpace=wrap;html=1;strokeColor=#ffffff;" vertex="1" parent="1">
          <mxGeometry x="275" y="-220" width="190" height="60" as="geometry" />
        </mxCell>
        <mxCell id="fjrM6RVfVKzAaWCYe4X4-202" value="" style="rounded=0;whiteSpace=wrap;html=1;" vertex="1" parent="1">
          <mxGeometry x="690" y="-226.75" width="120" height="10" as="geometry" />
        </mxCell>
        <mxCell id="fjrM6RVfVKzAaWCYe4X4-203" value="" style="rounded=0;whiteSpace=wrap;html=1;" vertex="1" parent="1">
          <mxGeometry x="690" y="-213.25" width="120" height="10" as="geometry" />
        </mxCell>
        <mxCell id="fjrM6RVfVKzAaWCYe4X4-204" value="" style="rounded=0;whiteSpace=wrap;html=1;" vertex="1" parent="1">
          <mxGeometry x="690" y="-200.75" width="120" height="10" as="geometry" />
        </mxCell>
        <mxCell id="fjrM6RVfVKzAaWCYe4X4-205" value="" style="rounded=0;whiteSpace=wrap;html=1;" vertex="1" parent="1">
          <mxGeometry x="690" y="-188.5" width="120" height="10" as="geometry" />
        </mxCell>
        <mxCell id="fjrM6RVfVKzAaWCYe4X4-206" value="" style="rounded=0;whiteSpace=wrap;html=1;" vertex="1" parent="1">
          <mxGeometry x="690" y="-175.5" width="120" height="10" as="geometry" />
        </mxCell>
        <mxCell id="fjrM6RVfVKzAaWCYe4X4-207" value="" style="rounded=0;whiteSpace=wrap;html=1;" vertex="1" parent="1">
          <mxGeometry x="690" y="-162.75" width="120" height="10" as="geometry" />
        </mxCell>
        <mxCell id="fjrM6RVfVKzAaWCYe4X4-208" value="" style="rounded=0;whiteSpace=wrap;html=1;" vertex="1" parent="1">
          <mxGeometry x="690" y="-151.25" width="120" height="10" as="geometry" />
        </mxCell>
        <mxCell id="fjrM6RVfVKzAaWCYe4X4-209" value="" style="rounded=0;whiteSpace=wrap;html=1;" vertex="1" parent="1">
          <mxGeometry x="690" y="-138.25" width="120" height="10" as="geometry" />
        </mxCell>
        <mxCell id="fjrM6RVfVKzAaWCYe4X4-210" value="&lt;font style=&quot;font-size: 6px;&quot;&gt;Character Name&lt;/font&gt;" style="rounded=0;whiteSpace=wrap;html=1;strokeColor=#FFFFFF;" vertex="1" parent="1">
          <mxGeometry x="630" y="-226.75" width="50" height="10" as="geometry" />
        </mxCell>
        <mxCell id="fjrM6RVfVKzAaWCYe4X4-211" value="&lt;span style=&quot;font-size: 6px;&quot;&gt;are they a pony?&lt;/span&gt;" style="rounded=0;whiteSpace=wrap;html=1;strokeColor=#FFFFFF;" vertex="1" parent="1">
          <mxGeometry x="630" y="-213.75" width="50" height="10" as="geometry" />
        </mxCell>
        <mxCell id="fjrM6RVfVKzAaWCYe4X4-212" value="&lt;font style=&quot;font-size: 5px;&quot;&gt;are they a main character?&lt;/font&gt;" style="rounded=0;whiteSpace=wrap;html=1;strokeColor=#FFFFFF;" vertex="1" parent="1">
          <mxGeometry x="620" y="-200.75" width="70" height="10" as="geometry" />
        </mxCell>
        <mxCell id="fjrM6RVfVKzAaWCYe4X4-215" value="" style="rounded=0;whiteSpace=wrap;html=1;strokeColor=#FFFFFF;" vertex="1" parent="1">
          <mxGeometry x="630" y="-175.5" width="50" height="10" as="geometry" />
        </mxCell>
        <mxCell id="fjrM6RVfVKzAaWCYe4X4-219" value="&lt;font style=&quot;font-size: 8px;&quot;&gt;Catergory&lt;span style=&quot;white-space: pre;&quot;&gt;&#x9;&lt;/span&gt;&lt;span style=&quot;white-space: pre;&quot;&gt;&#x9;&lt;/span&gt;&lt;span style=&quot;white-space: pre;&quot;&gt;&#x9;&lt;/span&gt;&lt;/font&gt;" style="html=1;shadow=0;dashed=0;shape=mxgraph.bootstrap.rrect;rSize=5;strokeColor=none;strokeWidth=1;fillColor=#6C767D;fontColor=#ffffff;whiteSpace=wrap;align=right;verticalAlign=middle;fontStyle=0;fontSize=14;spacingRight=20;" vertex="1" parent="1">
          <mxGeometry x="640" y="-189.25" width="170" height="11.5" as="geometry" />
        </mxCell>
        <mxCell id="fjrM6RVfVKzAaWCYe4X4-220" value="" style="shape=triangle;direction=south;fillColor=#ffffff;strokeColor=none;perimeter=none;" vertex="1" parent="fjrM6RVfVKzAaWCYe4X4-219">
          <mxGeometry x="1" y="0.5" width="10" height="5" relative="1" as="geometry">
            <mxPoint x="-17" y="-2.5" as="offset" />
          </mxGeometry>
        </mxCell>
        <mxCell id="fjrM6RVfVKzAaWCYe4X4-221" value="&lt;span style=&quot;font-size: 8px;&quot;&gt;Mane colour 1&lt;span style=&quot;white-space: pre;&quot;&gt;&#x9;&lt;/span&gt;&lt;span style=&quot;white-space: pre;&quot;&gt;&#x9;&lt;/span&gt;&lt;span style=&quot;white-space: pre;&quot;&gt;&#x9;&lt;/span&gt;&lt;/span&gt;" style="html=1;shadow=0;dashed=0;shape=mxgraph.bootstrap.rrect;rSize=5;strokeColor=none;strokeWidth=1;fillColor=#6C767D;fontColor=#ffffff;whiteSpace=wrap;align=right;verticalAlign=middle;fontStyle=0;fontSize=14;spacingRight=20;" vertex="1" parent="1">
          <mxGeometry x="640" y="-176.25" width="170" height="11.5" as="geometry" />
        </mxCell>
        <mxCell id="fjrM6RVfVKzAaWCYe4X4-222" value="" style="shape=triangle;direction=south;fillColor=#ffffff;strokeColor=none;perimeter=none;" vertex="1" parent="fjrM6RVfVKzAaWCYe4X4-221">
          <mxGeometry x="1" y="0.5" width="10" height="5" relative="1" as="geometry">
            <mxPoint x="-17" y="-2.5" as="offset" />
          </mxGeometry>
        </mxCell>
        <mxCell id="fjrM6RVfVKzAaWCYe4X4-223" value="&lt;span style=&quot;font-size: 8px;&quot;&gt;Mane colour 2&lt;span style=&quot;white-space: pre;&quot;&gt;&#x9;&lt;/span&gt;&lt;span style=&quot;white-space: pre;&quot;&gt;&#x9;&lt;/span&gt;&lt;span style=&quot;white-space: pre;&quot;&gt;&#x9;&lt;/span&gt;&lt;/span&gt;" style="html=1;shadow=0;dashed=0;shape=mxgraph.bootstrap.rrect;rSize=5;strokeColor=none;strokeWidth=1;fillColor=#6C767D;fontColor=#ffffff;whiteSpace=wrap;align=right;verticalAlign=middle;fontStyle=0;fontSize=14;spacingRight=20;" vertex="1" parent="1">
          <mxGeometry x="640" y="-162.75" width="170" height="11.5" as="geometry" />
        </mxCell>
        <mxCell id="fjrM6RVfVKzAaWCYe4X4-224" value="" style="shape=triangle;direction=south;fillColor=#ffffff;strokeColor=none;perimeter=none;" vertex="1" parent="fjrM6RVfVKzAaWCYe4X4-223">
          <mxGeometry x="1" y="0.5" width="10" height="5" relative="1" as="geometry">
            <mxPoint x="-17" y="-2.5" as="offset" />
          </mxGeometry>
        </mxCell>
        <mxCell id="fjrM6RVfVKzAaWCYe4X4-226" value="&lt;span style=&quot;font-size: 8px;&quot;&gt;Body Colour 1&lt;span style=&quot;white-space: pre;&quot;&gt;&#x9;&lt;/span&gt;&lt;span style=&quot;white-space: pre;&quot;&gt;&#x9;&lt;/span&gt;&lt;span style=&quot;white-space: pre;&quot;&gt;&#x9;&lt;/span&gt;&lt;/span&gt;" style="html=1;shadow=0;dashed=0;shape=mxgraph.bootstrap.rrect;rSize=5;strokeColor=none;strokeWidth=1;fillColor=#6C767D;fontColor=#ffffff;whiteSpace=wrap;align=right;verticalAlign=middle;fontStyle=0;fontSize=14;spacingRight=20;" vertex="1" parent="1">
          <mxGeometry x="640" y="-149.75" width="170" height="11.5" as="geometry" />
        </mxCell>
        <mxCell id="fjrM6RVfVKzAaWCYe4X4-227" value="" style="shape=triangle;direction=south;fillColor=#ffffff;strokeColor=none;perimeter=none;" vertex="1" parent="fjrM6RVfVKzAaWCYe4X4-226">
          <mxGeometry x="1" y="0.5" width="10" height="5" relative="1" as="geometry">
            <mxPoint x="-17" y="-2.5" as="offset" />
          </mxGeometry>
        </mxCell>
        <mxCell id="fjrM6RVfVKzAaWCYe4X4-228" value="&lt;span style=&quot;font-size: 8px;&quot;&gt;Body Colour 1&lt;span style=&quot;white-space: pre;&quot;&gt;&#x9;&lt;/span&gt;&lt;span style=&quot;white-space: pre;&quot;&gt;&#x9;&lt;/span&gt;&lt;span style=&quot;white-space: pre;&quot;&gt;&#x9;&lt;/span&gt;&lt;/span&gt;" style="html=1;shadow=0;dashed=0;shape=mxgraph.bootstrap.rrect;rSize=5;strokeColor=none;strokeWidth=1;fillColor=#6C767D;fontColor=#ffffff;whiteSpace=wrap;align=right;verticalAlign=middle;fontStyle=0;fontSize=14;spacingRight=20;" vertex="1" parent="1">
          <mxGeometry x="640" y="-133.75" width="170" height="11.5" as="geometry" />
        </mxCell>
        <mxCell id="fjrM6RVfVKzAaWCYe4X4-229" value="" style="shape=triangle;direction=south;fillColor=#ffffff;strokeColor=none;perimeter=none;" vertex="1" parent="fjrM6RVfVKzAaWCYe4X4-228">
          <mxGeometry x="1" y="0.5" width="10" height="5" relative="1" as="geometry">
            <mxPoint x="-17" y="-2.5" as="offset" />
          </mxGeometry>
        </mxCell>
        <mxCell id="fjrM6RVfVKzAaWCYe4X4-232" value="&lt;span style=&quot;font-size: 8px;&quot;&gt;Residence&lt;span style=&quot;white-space: pre;&quot;&gt;&#x9;&lt;/span&gt;&lt;span style=&quot;white-space: pre;&quot;&gt;&#x9;&lt;/span&gt;&lt;span style=&quot;white-space: pre;&quot;&gt;&#x9;&lt;/span&gt;&lt;/span&gt;" style="html=1;shadow=0;dashed=0;shape=mxgraph.bootstrap.rrect;rSize=5;strokeColor=none;strokeWidth=1;fillColor=#6C767D;fontColor=#ffffff;whiteSpace=wrap;align=right;verticalAlign=middle;fontStyle=0;fontSize=14;spacingRight=20;" vertex="1" parent="1">
          <mxGeometry x="640" y="-120.25" width="170" height="11.5" as="geometry" />
        </mxCell>
        <mxCell id="fjrM6RVfVKzAaWCYe4X4-233" value="" style="shape=triangle;direction=south;fillColor=#ffffff;strokeColor=none;perimeter=none;" vertex="1" parent="fjrM6RVfVKzAaWCYe4X4-232">
          <mxGeometry x="1" y="0.5" width="10" height="5" relative="1" as="geometry">
            <mxPoint x="-17" y="-2.5" as="offset" />
          </mxGeometry>
        </mxCell>
        <mxCell id="fjrM6RVfVKzAaWCYe4X4-234" value="" style="rounded=0;whiteSpace=wrap;html=1;" vertex="1" parent="1">
          <mxGeometry x="690" y="-103.75" width="120" height="53.75" as="geometry" />
        </mxCell>
        <mxCell id="fjrM6RVfVKzAaWCYe4X4-235" value="&lt;font style=&quot;font-size: 6px;&quot;&gt;Description [90 charcaters or less]&lt;/font&gt;" style="rounded=0;whiteSpace=wrap;html=1;strokeColor=#FFFFFF;" vertex="1" parent="1">
          <mxGeometry x="620" y="-103.75" width="60" height="10" as="geometry" />
        </mxCell>
        <mxCell id="PLlh82RxYjrmbesrhZtw-7" value="" style="rounded=1;whiteSpace=wrap;html=1;" vertex="1" parent="1">
          <mxGeometry x="620" y="70.75" width="180" height="70" as="geometry" />
        </mxCell>
        <mxCell id="PLlh82RxYjrmbesrhZtw-8" value="&lt;font style=&quot;font-size: 8px;&quot;&gt;Fluttershy (Main Character &amp;amp; Generation 4&lt;/font&gt;" style="rounded=1;whiteSpace=wrap;html=1;strokeColor=#FFFFFF;align=left;" vertex="1" parent="1">
          <mxGeometry x="630" y="78.25" width="160" height="10" as="geometry" />
        </mxCell>
        <mxCell id="PLlh82RxYjrmbesrhZtw-9" value="&lt;span style=&quot;font-size: 8px;&quot;&gt;Residence: Cottage near Ponyville&lt;/span&gt;" style="rounded=1;whiteSpace=wrap;html=1;strokeColor=#FFFFFF;align=left;" vertex="1" parent="1">
          <mxGeometry x="630" y="88.25" width="145" height="10" as="geometry" />
        </mxCell>
        <mxCell id="PLlh82RxYjrmbesrhZtw-10" value="&lt;font style=&quot;font-size: 8px;&quot;&gt;Mane colour: Pink&lt;/font&gt;" style="rounded=1;whiteSpace=wrap;html=1;strokeColor=#FFFFFF;align=left;" vertex="1" parent="1">
          <mxGeometry x="630" y="98.25" width="80" height="10" as="geometry" />
        </mxCell>
        <mxCell id="PLlh82RxYjrmbesrhZtw-11" value="&lt;font style=&quot;font-size: 8px;&quot;&gt;Body colour: yellow&lt;/font&gt;" style="rounded=1;whiteSpace=wrap;html=1;strokeColor=#ffffff;align=left;" vertex="1" parent="1">
          <mxGeometry x="630" y="108.25" width="120" height="10" as="geometry" />
        </mxCell>
        <mxCell id="PLlh82RxYjrmbesrhZtw-12" value="&lt;font style=&quot;font-size: 8px;&quot;&gt;A shy and kind Pegasus who loves animals&lt;/font&gt;" style="rounded=1;whiteSpace=wrap;html=1;strokeColor=#FFFFFF;" vertex="1" parent="1">
          <mxGeometry x="630" y="119.25" width="160" height="10" as="geometry" />
        </mxCell>
        <mxCell id="PLlh82RxYjrmbesrhZtw-13" value="" style="rounded=1;whiteSpace=wrap;html=1;" vertex="1" parent="1">
          <mxGeometry x="620" y="147" width="180" height="70" as="geometry" />
        </mxCell>
        <mxCell id="PLlh82RxYjrmbesrhZtw-14" value="&lt;font style=&quot;font-size: 8px;&quot;&gt;Cheerilee (Ponyville Residents)&lt;/font&gt;" style="rounded=1;whiteSpace=wrap;html=1;strokeColor=#FFFFFF;align=left;" vertex="1" parent="1">
          <mxGeometry x="630" y="154.5" width="160" height="10" as="geometry" />
        </mxCell>
        <mxCell id="PLlh82RxYjrmbesrhZtw-15" value="&lt;span style=&quot;font-size: 8px;&quot;&gt;Residence: Ponyville&lt;/span&gt;" style="rounded=1;whiteSpace=wrap;html=1;strokeColor=#FFFFFF;align=left;" vertex="1" parent="1">
          <mxGeometry x="630" y="164.5" width="145" height="10" as="geometry" />
        </mxCell>
        <mxCell id="PLlh82RxYjrmbesrhZtw-16" value="&lt;font style=&quot;font-size: 8px;&quot;&gt;Mane colour: Pink&lt;/font&gt;" style="rounded=1;whiteSpace=wrap;html=1;strokeColor=#FFFFFF;align=left;" vertex="1" parent="1">
          <mxGeometry x="630" y="174.5" width="80" height="10" as="geometry" />
        </mxCell>
        <mxCell id="PLlh82RxYjrmbesrhZtw-17" value="&lt;font style=&quot;font-size: 8px;&quot;&gt;Body colour: light pink&lt;/font&gt;" style="rounded=1;whiteSpace=wrap;html=1;strokeColor=#ffffff;align=left;" vertex="1" parent="1">
          <mxGeometry x="630" y="184.5" width="120" height="10" as="geometry" />
        </mxCell>
        <mxCell id="PLlh82RxYjrmbesrhZtw-18" value="&lt;font style=&quot;font-size: 8px;&quot;&gt;A kind and patient schoolteacher in Ponyville&lt;/font&gt;" style="rounded=1;whiteSpace=wrap;html=1;strokeColor=#FFFFFF;" vertex="1" parent="1">
          <mxGeometry x="620" y="195.5" width="170" height="10" as="geometry" />
        </mxCell>
      </root>
    </mxGraphModel>
  </diagram>
</mxfile>
